<svg xmlns="http://www.w3.org/2000/svg" version="1.1" viewBox="50 25 220 220" style="fill: transparent;">
  <style xmlns="http://www.w3.org/2000/svg" type="text/css">
    .st118{fill:url(#SVGID_110_);}
    .st119{fill:url(#SVGID_111_);}
  </style>
  <g xmlns="http://www.w3.org/2000/svg">
    <linearGradient id="SVGID_110_" gradientUnits="userSpaceOnUse" x1="2.9056" y1="287.9554" x2="319.3435" y2="-15.3967" gradientTransform="matrix(1 5.464556e-03 -5.464556e-03 1 -2.0192 -3.0212)">
      <stop offset="0" style="stop-color:#59FF7F"/>
      <stop offset="1" style="stop-color:#6BFBFF"/>
    </linearGradient>
    <path class="st118" d="M158.9,238.8c-0.2,0-0.4,0-0.6,0c-58-0.3-104.9-47.7-104.6-105.7C54,75.3,101.1,28.5,158.8,28.5       c0.2,0,0.4,0,0.6,0c58,0.3,104.9,47.7,104.6,105.7l0,0C263.7,192,216.6,238.8,158.9,238.8z M158.8,32.2       c-55.7,0-101.2,45.2-101.5,100.9c-0.3,55.9,45,101.7,100.9,102c0.2,0,0.4,0,0.6,0c55.7,0,101.2-45.2,101.5-100.9       c0.3-55.9-45-101.7-100.9-102C159.2,32.2,159,32.2,158.8,32.2z"/>
    <linearGradient id="SVGID_111_" gradientUnits="userSpaceOnUse" x1="100.2325" y1="202.9649" x2="293.1712" y2="21.8993">
      <stop offset="0" style="stop-color:#59FF7F"/>
      <stop offset="1" style="stop-color:#6BFBFF"/>
    </linearGradient>
    <path class="st119" d="M223.3,120.5c0.1,0,0.3,0.2,0.4,0.3l0.6,2.2l-5.3,2.4c-0.8,0.4-1.4,1.1-1.6,1.9c-0.2,0.8,0,1.7,0.6,2.4       l-13.8,3.9c-6.8,1.9-6.8,7.2-6.8,11l0,0.4c0,1.8,1.4,3.2,3.2,3.2c0.1,0,0.3,0,0.5,0l20.6-2.9c0.3,0,0.5-0.1,0.8-0.2v20.9v6.5       h-19.5v-4c0-0.8-0.3-1.5-0.9-2.1c-0.5-0.5-1.2-0.8-1.9-0.8c-0.1,0-0.1,0-0.2,0c-14.4,1.1-26.8,1.6-39.1,1.6       c-12.3,0-24.7-0.5-39.1-1.6c-0.1,0-0.1,0-0.2,0c-0.7,0-1.4,0.3-1.9,0.8c-0.6,0.5-0.9,1.3-0.9,2.1v4H98.9v-6.5v-20.9       c0.3,0.1,0.5,0.1,0.8,0.2l20.6,2.9c0.1,0,0.3,0,0.5,0c1.8,0,3.2-1.4,3.2-3.2l0-0.4c0-3.8,0-9.1-6.8-11l-13.8-3.9       c0.5-0.7,0.8-1.6,0.6-2.4c-0.2-0.9-0.8-1.6-1.6-1.9l-5.3-2.4l0.6-2.2c0-0.1,0.3-0.3,0.3-0.3h11.5l-2,2.7c0,0,0,0,0,0.1       c-0.8,1.2-1,2.6-0.4,3.8c0.6,1.2,1.8,1.8,3.2,1.8c0.2,0,0.4,0,0.6,0c17.8-1.5,34.1-2.2,49.9-2.2s32.2,0.7,49.9,2.2       c0.2,0,0.4,0,0.6,0c1.4,0,2.6-0.7,3.2-1.8c0.6-1.2,0.5-2.6-0.3-3.8c0,0,0,0,0-0.1l-2-2.7L223.3,120.5 M161.3,149.5       c9,0,18.2-0.3,28.8-1c2.3-0.1,4.1-1.8,4.5-4.2l0.5-2.5c0.2-1.2-0.1-2.5-0.9-3.5c-0.9-1.1-2.3-1.8-3.8-1.8H131       c-1.5,0-2.9,0.7-3.8,1.8c-0.8,1-1.2,2.3-0.9,3.5l0.5,2.5c0.5,2.4,2.2,4.1,4.6,4.2C143,149.2,152.3,149.5,161.3,149.5        M160.7,100.8c-11.8,0-23.7,0.8-37,2.3c-2.2,0.3-3.4,1.5-3.9,2.2l-10.1,12.4H98c-1.3,0-2.7,1.1-3.1,2.4l-1.1,4       c-0.1,0.5,0.2,0.7,0.7,1l6.7,3l-2.7,3.3l18,5.1c4.9,1.4,4.7,4.7,4.7,8.7c0,0.2-0.2,0.4-0.4,0.4c0,0,0,0-0.1,0l-20.6-2.9       c-1.7-0.2-3.2-1.4-4-2.9v26.5v6.8c0,1.4,1.1,2.5,2.5,2.5h20.3c1.4,0,2.5-1.1,2.5-2.5v-4.4c14.1,1.1,26.7,1.6,39.3,1.6       c12.6,0,25.2-0.5,39.3-1.6v4.4c0,1.4,1.1,2.5,2.5,2.5h20.3c1.4,0,2.5-1.1,2.5-2.5v-6.8v-26.5c-0.8,1.5-2.3,2.7-4,2.9l-20.6,2.9       c0,0,0,0-0.1,0c-0.2,0-0.4-0.2-0.4-0.4c0-4-0.2-7.3,4.7-8.7l18-5.1l-2.7-3.3l6.7-3c0.5-0.2,0.8-0.4,0.7-1l-1.1-4       c-0.4-1.3-1.7-2.4-3.1-2.4h-11.7l-10.1-12.4c-0.5-0.7-1.7-1.9-3.9-2.2C184.3,101.6,172.5,100.8,160.7,100.8L160.7,100.8z        M110.2,126.1c-0.8,0-0.9-0.6-0.5-1.1l12.3-16.4c0.5-0.7,1.1-1,2-1.1c12.9-1.6,24.8-2.3,36.7-2.3c11.9,0,23.7,0.8,36.7,2.3       c0.9,0.1,1.5,0.5,2,1.1l12.3,16.4c0.4,0.5,0.3,1.1-0.5,1.1c-0.1,0-0.2,0-0.3,0c-17.7-1.4-33.9-2.2-50.2-2.2       c-16.3,0-32.5,0.7-50.2,2.2C110.4,126.1,110.3,126.1,110.2,126.1L110.2,126.1z M161.3,146.7c-9.4,0-18.8-0.3-29.8-1       c-1.1-0.1-1.7-0.9-1.9-1.9l-0.5-2.5c-0.2-1,0.9-1.9,1.9-1.9h59.3c1.1,0,2.1,0.9,1.9,1.9l-0.5,2.5c-0.2,1-0.9,1.9-1.9,1.9       C179.3,146.4,170.3,146.7,161.3,146.7L161.3,146.7z"/>
  </g>
</svg>