<svg  viewBox="65 70 65 70" width="50%" height="50%">
  <style xmlns="http://www.w3.org/2000/svg" type="text/css">
    .st6{fill:url(#SVGID_1_);}
    .st7{fill:url(#SVGID_2_);}
    .st8{fill:url(#SVGID_3_);}
    .st9{fill:url(#SVGID_4_);}
    .st10{fill:url(#SVGID_5_);}
  </style>
  <g xmlns="http://www.w3.org/2000/svg" id="Home_1_">
    <g>
      <linearGradient id="SVGID_1_" gradientUnits="userSpaceOnUse" x1="97.5" y1="155.911" x2="97.5" y2="84.32">
        <stop offset="0" style="stop-color:#59FF7F"/>
        <stop offset="1" style="stop-color:#6BFBFF"/>
      </linearGradient>
      <path class="st6"
            d="M65.5,106.3c-1.2-1.2-1.2-3.2,0-4.4l29.8-28.7c1.1-1.1,3.2-1.2,4.3,0l29.8,28.7c1.2,1.2,1.2,3.2,0,4.4        l-1.4-1.4c0.4-0.4,0.4-1.1,0-1.5L98.3,74.6c-0.4-0.4-1.1-0.4-1.5,0l-29.8,28.7c-0.4,0.4-0.4,1.1,0,1.5L65.5,106.3z"/>
    </g>
    <g>
      <linearGradient id="SVGID_2_" gradientUnits="userSpaceOnUse" x1="116.7689" y1="155.911" x2="116.7689" y2="84.32">
        <stop offset="0" style="stop-color:#59FF7F"/>
        <stop offset="1" style="stop-color:#6BFBFF"/>
      </linearGradient>
      <path class="st7" d="M123,90h-2V76.9l-8.4,0l0,4.2h-2v-4.2c0-1.1,0.9-2.1,2.1-2.1h8.4c1.1,0,2.1,0.9,2.1,2.1V90z"/>
    </g>
    <g>
      <linearGradient id="SVGID_3_" gradientUnits="userSpaceOnUse" x1="78.2426" y1="155.911" x2="78.2426" y2="84.32">
        <stop offset="0" style="stop-color:#59FF7F"/>
        <stop offset="1" style="stop-color:#6BFBFF"/>
      </linearGradient>
      <path class="st8" d="M86.6,138H73c-1.7,0-3.1-1.4-3.1-3.1v-14.7h2v14.7c0,0.6,0.5,1.1,1.1,1.1h13.5V138z"/>
    </g>
    <g>
      <linearGradient id="SVGID_4_" gradientUnits="userSpaceOnUse" x1="116.6839" y1="155.911" x2="116.6839" y2="84.32">
        <stop offset="0" style="stop-color:#59FF7F"/>
        <stop offset="1" style="stop-color:#6BFBFF"/>
      </linearGradient>
      <path class="st9"
            d="M121.9,138h-13.6v-2h13.6c0.6,0,1.1-0.5,1.1-1.1v-27.2c0-0.6-0.5-1.1-1.1-1.1v-2c1.7,0,3.1,1.4,3.1,3.1        v27.2C125,136.7,123.6,138,121.9,138z"/>
    </g>
    <g>
      <linearGradient id="SVGID_5_" gradientUnits="userSpaceOnUse" x1="96.9365" y1="155.911" x2="96.9365" y2="84.32">
        <stop offset="0" style="stop-color:#59FF7F"/>
        <stop offset="1" style="stop-color:#6BFBFF"/>
      </linearGradient>
      <path class="st10"
            d="M103.2,138.2l0-21l-12.5,0l0,18.9l0,2.1c-1.1,0-2.1-0.9-2.1-2.1v-18.9c0-1.1,0.9-2.1,2.1-2.1h12.5        c1.1,0,2.1,0.9,2.1,2.1v18.9C105.3,137.2,104.3,138.2,103.2,138.2z"/>
    </g>
  </g>
</svg>