<svg viewBox="75 72 45 70" width="50%" height="50%">
  <style xmlns="http://www.w3.org/2000/svg" type="text/css">
    .st14{fill:url(#SVGID_8_);}
    .st15{fill:url(#SVGID_9_);}
    .st16{fill:url(#SVGID_10_);}
    .st17{fill:url(#SVGID_11_);}
    .st18{fill:url(#SVGID_12_);}
    .st19{fill:url(#SVGID_13_);}
    .st20{fill:url(#SVGID_14_);}
    .st21{fill:url(#SVGID_15_);}
    .st22{fill:url(#SVGID_16_);}
    .st23{fill:url(#SVGID_17_);}
    .st24{fill:url(#SVGID_18_);}
    .st25{fill:url(#SVGID_19_);}
    .st26{fill:url(#SVGID_20_);}
    .st27{fill:url(#SVGID_21_);}
    .st28{fill:url(#SVGID_22_);}
    .st29{fill:url(#SVGID_23_);}
  </style>
  <g xmlns="http://www.w3.org/2000/svg" id="HVAC_Icon_1_">
    <linearGradient id="SVGID_8_" gradientUnits="userSpaceOnUse" x1="97.4994" y1="166.6087" x2="97.4994" y2="40.4035">
      <stop offset="0" style="stop-color:#59FF7F"/>
      <stop offset="1" style="stop-color:#6BFBFF"/>
    </linearGradient>
    <path class="st14" d="M106.2,113.4V81.3c0-4.9-3.9-8.8-8.7-8.8c-4.8,0-8.7,4-8.7,8.8v1.2H91v-1.2c0-3.7,2.9-6.6,6.5-6.6       c3.6,0,6.5,3,6.5,6.6v33.3l0.5,0.3c3.8,2.4,6.1,6.5,6.1,11c0,7.2-5.8,13.1-13,13.1c-7.3,0-13.2-5.9-13.2-13.1       c0-4.6,2.3-8.8,6-11.1l0.5-0.3V88.3h-2.2v25c-4.1,2.8-6.5,7.5-6.5,12.6c0,8.4,6.9,15.3,15.3,15.3c8.4,0,15.2-6.9,15.2-15.3       C112.8,120.9,110.3,116.2,106.2,113.4z"/>
    <linearGradient id="SVGID_9_" gradientUnits="userSpaceOnUse" x1="97.4994" y1="166.6087" x2="97.4994" y2="40.4035">
      <stop offset="0" style="stop-color:#59FF7F"/>
      <stop offset="1" style="stop-color:#6BFBFF"/>
    </linearGradient>
    <path class="st15" d="M97.6,98.6c-4,0-4.4,2.4-4.4,3.5v13.7l-1.4,0.9c-3.2,2-5.2,5.5-5.2,9.3c0,6,4.9,10.9,10.9,10.9       c2,0,4-0.6,5.8-1.6l-1.2-1.9c-1.4,0.9-3,1.3-4.6,1.3c-4.8,0-8.7-3.9-8.7-8.7c0-3,1.5-5.8,4.1-7.4l2.5-1.5v-14.9       c0-0.4,0-1.3,2.2-1.3c2.1,0,2.1,0.6,2.1,1.2V117l2.5,1.6c2.5,1.6,4,4.4,4,7.3h2.2c0-3.7-1.9-7.2-5-9.2l-1.5-1V102       C101.9,100.5,101.1,98.6,97.6,98.6z"/>
    <linearGradient id="SVGID_10_" gradientUnits="userSpaceOnUse" x1="82.7745" y1="166.6087" x2="82.7745" y2="40.4035">
      <stop offset="0" style="stop-color:#59FF7F"/>
      <stop offset="1" style="stop-color:#6BFBFF"/>
    </linearGradient>
    <polygon class="st16" points="80.1,80.1 80.1,80.1 80.2,80.1 80.2,80.1 80.2,80.1 80.2,80.1 80.3,80.1 80.3,80.1 80.3,80.1        80.4,80.1 80.4,80.1 80.4,80.1 80.4,80.1 80.5,80.1 80.5,80.1 80.5,80.1 80.6,80.1 80.6,80.1 80.6,80.1 80.6,80.1 80.7,80.1        80.7,80.1 80.7,80.1 80.8,80.1 80.8,80.1 80.8,80.1 80.8,80.1 80.9,80.1 80.9,80.1 80.9,80.1 81,80.1 81,80.1 81,80.1 81,80.1        81.1,80.1 81.1,80.1 81.1,80.1 81.2,80.1 81.2,80.1 81.2,80.1 81.2,80.1 81.3,80.1 81.3,80.1 81.3,80.1 81.4,80.1 81.4,80.1        81.4,80.1 81.4,80.1 81.5,80.1 81.5,80.1 81.5,80.1 81.6,80.1 81.6,80.1 81.6,80.1 81.6,80.1 81.7,80.1 81.7,80.1 81.7,80.1        81.8,80.1 81.8,80.1 81.8,80.1 81.8,80.1 81.9,80.1 81.9,80.1 81.9,80.1 82,80.1 82,80.1 82,80.1 82,80.1 82.1,80.1 82.1,80.1        82.1,80.1 82.1,80.1 82.2,80.1 82.2,80.1 82.2,80.1 82.3,80.1 82.3,80.1 82.3,80.1 82.3,80.1 82.4,80.1 82.4,80.1 82.4,80.1        82.5,80.1 82.5,80.1 82.5,80.1 82.5,80.1 82.6,80.1 82.6,80.1 82.6,80.1 82.7,80.1 82.7,80.1 82.7,80.1 82.7,80.1 82.8,80.1        82.8,80.1 82.8,80.1 82.9,80.1 82.9,80.1 82.9,80.1 82.9,80.1 83,80.1 83,80.1 83,80.1 83.1,80.1 83.1,80.1 83.1,80.1        83.1,80.1 83.2,80.1 83.2,80.1 83.2,80.1 83.3,80.1 83.3,80.1 83.3,80.1 83.3,80.1 83.4,80.1 83.4,80.1 83.4,80.1 83.5,80.1        83.5,80.1 83.5,80.1 83.5,80.1 83.6,80.1 83.6,80.1 83.6,80.1 83.7,80.1 83.7,80.1 83.7,80.1 83.7,80.1 83.8,80.1 83.8,80.1        83.8,80.1 83.9,80.1 83.9,80.1 83.9,80.1 83.9,80.1 84,80.1 84,80.1 84,80.1 84.1,80.1 84.1,80.1 84.1,80.1 84.1,80.1        84.2,80.1 84.2,80.1 84.2,80.1 84.3,80.1 84.3,80.1 84.3,80.1 84.3,80.1 84.4,80.1 84.4,80.1 84.4,80.1 84.5,80.1 84.5,80.1        84.5,80.1 84.5,80.1 84.6,80.1 84.6,80.1 84.6,80.1 84.6,80.1 84.7,80.1 84.7,80.1 84.7,80.1 84.8,80.1 84.8,80.1 84.8,80.1        84.8,80.1 84.9,80.1 84.9,80.1 84.9,80.1 85,80.1 85,80.1 85,80.1 85,80.1 85.1,80.1 85.1,80.1 85.1,80.1 85.2,80.1 85.2,80.1        85.2,80.1 85.2,80.1 85.3,80.1 85.3,80.1 85.3,80.1 85.4,80.1 85.4,80.1 85.4,80.1 85.4,80.1 85.5,80.1 85.5,80.1 85.5,78        85.5,78 85.4,78 85.4,78 85.4,78 85.4,78 85.3,78 85.3,78 85.3,78 85.2,78 85.2,78 85.2,78 85.2,78 85.1,78 85.1,78 85.1,78        85,78 85,78 85,78 85,78 84.9,78 84.9,78 84.9,78 84.8,78 84.8,78 84.8,78 84.8,78 84.7,78 84.7,78 84.7,78 84.6,78 84.6,78        84.6,78 84.6,78 84.5,78 84.5,78 84.5,78 84.5,78 84.4,78 84.4,78 84.4,78 84.3,78 84.3,78 84.3,78 84.3,78 84.2,78 84.2,78        84.2,78 84.1,78 84.1,78 84.1,78 84.1,78 84,78 84,78 84,78 83.9,78 83.9,78 83.9,78 83.9,78 83.8,78 83.8,78 83.8,78 83.7,78        83.7,78 83.7,78 83.7,78 83.6,78 83.6,78 83.6,78 83.5,78 83.5,78 83.5,78 83.5,78 83.4,78 83.4,78 83.4,78 83.3,78 83.3,78        83.3,78 83.3,78 83.2,78 83.2,78 83.2,78 83.1,78 83.1,78 83.1,78 83.1,78 83,78 83,78 83,78 82.9,78 82.9,78 82.9,78 82.9,78        82.8,78 82.8,78 82.8,78 82.7,78 82.7,78 82.7,78 82.7,78 82.6,78 82.6,78 82.6,78 82.5,78 82.5,78 82.5,78 82.5,78 82.4,78        82.4,78 82.4,78 82.3,78 82.3,78 82.3,78 82.3,78 82.2,78 82.2,78 82.2,78 82.1,78 82.1,78 82.1,78 82.1,78 82,78 82,78 82,78        82,78 81.9,78 81.9,78 81.9,78 81.8,78 81.8,78 81.8,78 81.8,78 81.7,78 81.7,78 81.7,78 81.6,78 81.6,78 81.6,78 81.6,78        81.5,78 81.5,78 81.5,78 81.4,78 81.4,78 81.4,78 81.4,78 81.3,78 81.3,78 81.3,78 81.2,78 81.2,78 81.2,78 81.2,78 81.1,78        81.1,78 81.1,78 81,78 81,78 81,78 81,78 80.9,78 80.9,78 80.9,78 80.8,78 80.8,78 80.8,78 80.8,78 80.7,78 80.7,78 80.7,78        80.6,78 80.6,78 80.6,78 80.6,78 80.5,78 80.5,78 80.5,78 80.4,78 80.4,78 80.4,78 80.4,78 80.3,78 80.3,78 80.3,78 80.2,78        80.2,78 80.2,78 80.2,78 80.1,78 80.1,78 80.1,78 80,78 80,80.1 80.1,80.1      "/>
    <linearGradient id="SVGID_11_" gradientUnits="userSpaceOnUse" x1="83.8653" y1="166.6087" x2="83.8653" y2="40.4035">
      <stop offset="0" style="stop-color:#59FF7F"/>
      <stop offset="1" style="stop-color:#6BFBFF"/>
    </linearGradient>
    <polygon class="st17" points="85.5,83.5 85.4,83.5 85.4,83.5 85.4,83.5 85.4,83.5 85.4,83.5 85.3,83.5 85.3,83.5 85.3,83.5        85.3,83.5 85.3,83.5 85.3,83.5 85.2,83.5 85.2,83.5 85.2,83.5 85.2,83.5 85.2,83.5 85.2,83.5 85.1,83.5 85.1,83.5 85.1,83.5        85.1,83.5 85.1,83.5 85.1,83.5 85,83.5 85,83.5 85,83.5 85,83.5 85,83.5 85,83.5 84.9,83.5 84.9,83.5 84.9,83.5 84.9,83.5        84.9,83.5 84.9,83.5 84.8,83.5 84.8,83.5 84.8,83.5 84.8,83.5 84.8,83.5 84.8,83.5 84.7,83.5 84.7,83.5 84.7,83.5 84.7,83.5        84.7,83.5 84.6,83.5 84.6,83.5 84.6,83.5 84.6,83.5 84.6,83.5 84.6,83.5 84.5,83.5 84.5,83.5 84.5,83.5 84.5,83.5 84.5,83.5        84.5,83.5 84.4,83.5 84.4,83.5 84.4,83.5 84.4,83.5 84.4,83.5 84.4,83.5 84.3,83.5 84.3,83.5 84.3,83.5 84.3,83.5 84.3,83.5        84.3,83.5 84.2,83.5 84.2,83.5 84.2,83.5 84.2,83.5 84.2,83.5 84.2,83.5 84.1,83.5 84.1,83.5 84.1,83.5 84.1,83.5 84.1,83.5        84.1,83.5 84,83.5 84,83.5 84,83.5 84,83.5 84,83.5 84,83.5 83.9,83.5 83.9,83.5 83.9,83.5 83.9,83.5 83.9,83.5 83.8,83.5        83.8,83.5 83.8,83.5 83.8,83.5 83.8,83.5 83.8,83.5 83.7,83.5 83.7,83.5 83.7,83.5 83.7,83.5 83.7,83.5 83.7,83.5 83.6,83.5        83.6,83.5 83.6,83.5 83.6,83.5 83.6,83.5 83.6,83.5 83.5,83.5 83.5,83.5 83.5,83.5 83.5,83.5 83.5,83.5 83.5,83.5 83.4,83.5        83.4,83.5 83.4,83.5 83.4,83.5 83.4,83.5 83.4,83.5 83.3,83.5 83.3,83.5 83.3,83.5 83.3,83.5 83.3,83.5 83.3,83.5 83.2,83.5        83.2,83.5 83.2,83.5 83.2,83.5 83.2,83.5 83.1,83.5 83.1,83.5 83.1,83.5 83.1,83.5 83.1,83.5 83.1,83.5 83,83.5 83,83.5        83,83.5 83,83.5 83,83.5 83,83.5 82.9,83.5 82.9,83.5 82.9,83.5 82.9,83.5 82.9,83.5 82.9,83.5 82.8,83.5 82.8,83.5 82.8,83.5        82.8,83.5 82.8,83.5 82.8,83.5 82.7,83.5 82.7,83.5 82.7,83.5 82.7,83.5 82.7,83.5 82.7,83.5 82.6,83.5 82.6,83.5 82.6,83.5        82.6,83.5 82.6,83.5 82.6,83.5 82.5,83.5 82.5,83.5 82.5,83.5 82.5,83.5 82.5,83.5 82.5,83.5 82.4,83.5 82.4,83.5 82.4,83.5        82.4,83.5 82.4,83.5 82.3,83.5 82.3,83.5 82.3,83.5 82.3,83.5 82.3,83.5 82.3,83.5 82.2,83.5 82.2,83.5 82.2,85.5 82.2,85.5        82.3,85.5 82.3,85.5 82.3,85.5 82.3,85.5 82.3,85.5 82.3,85.5 82.4,85.5 82.4,85.5 82.4,85.5 82.4,85.5 82.4,85.5 82.5,85.5        82.5,85.5 82.5,85.5 82.5,85.5 82.5,85.5 82.5,85.5 82.6,85.5 82.6,85.5 82.6,85.5 82.6,85.5 82.6,85.5 82.6,85.5 82.7,85.5        82.7,85.5 82.7,85.5 82.7,85.5 82.7,85.5 82.7,85.5 82.8,85.5 82.8,85.5 82.8,85.5 82.8,85.5 82.8,85.5 82.8,85.5 82.9,85.5        82.9,85.5 82.9,85.5 82.9,85.5 82.9,85.5 82.9,85.5 83,85.5 83,85.5 83,85.5 83,85.5 83,85.5 83,85.5 83.1,85.5 83.1,85.5        83.1,85.5 83.1,85.5 83.1,85.5 83.1,85.5 83.2,85.5 83.2,85.5 83.2,85.5 83.2,85.5 83.2,85.5 83.3,85.5 83.3,85.5 83.3,85.5        83.3,85.5 83.3,85.5 83.3,85.5 83.4,85.5 83.4,85.5 83.4,85.5 83.4,85.5 83.4,85.5 83.4,85.5 83.5,85.5 83.5,85.5 83.5,85.5        83.5,85.5 83.5,85.5 83.5,85.5 83.6,85.5 83.6,85.5 83.6,85.5 83.6,85.5 83.6,85.5 83.6,85.5 83.7,85.5 83.7,85.5 83.7,85.5        83.7,85.5 83.7,85.5 83.7,85.5 83.8,85.5 83.8,85.5 83.8,85.5 83.8,85.5 83.8,85.5 83.8,85.5 83.9,85.5 83.9,85.5 83.9,85.5        83.9,85.5 83.9,85.5 84,85.5 84,85.5 84,85.5 84,85.5 84,85.5 84,85.5 84.1,85.5 84.1,85.5 84.1,85.5 84.1,85.5 84.1,85.5        84.1,85.5 84.2,85.5 84.2,85.5 84.2,85.5 84.2,85.5 84.2,85.5 84.2,85.5 84.3,85.5 84.3,85.5 84.3,85.5 84.3,85.5 84.3,85.5        84.3,85.5 84.4,85.5 84.4,85.5 84.4,85.5 84.4,85.5 84.4,85.5 84.4,85.5 84.5,85.5 84.5,85.5 84.5,85.5 84.5,85.5 84.5,85.5        84.5,85.5 84.6,85.5 84.6,85.5 84.6,85.5 84.6,85.5 84.6,85.5 84.6,85.5 84.7,85.5 84.7,85.5 84.7,85.5 84.7,85.5 84.7,85.5        84.8,85.5 84.8,85.5 84.8,85.5 84.8,85.5 84.8,85.5 84.8,85.5 84.9,85.5 84.9,85.5 84.9,85.5 84.9,85.5 84.9,85.5 84.9,85.5        85,85.5 85,85.5 85,85.5 85,85.5 85,85.5 85,85.5 85.1,85.5 85.1,85.5 85.1,85.5 85.1,85.5 85.1,85.5 85.1,85.5 85.2,85.5        85.2,85.5 85.2,85.5 85.2,85.5 85.2,85.5 85.2,85.5 85.3,85.5 85.3,85.5 85.3,85.5 85.3,85.5 85.3,85.5 85.3,85.5 85.4,85.5        85.4,85.5 85.4,85.5 85.4,85.5 85.4,85.5 85.5,85.5 85.5,85.5 85.5,85.5 85.5,85.5 85.5,83.5 85.5,83.5 85.5,83.5      "/>
    <linearGradient id="SVGID_12_" gradientUnits="userSpaceOnUse" x1="82.7745" y1="166.6087" x2="82.7745" y2="40.4035">
      <stop offset="0" style="stop-color:#59FF7F"/>
      <stop offset="1" style="stop-color:#6BFBFF"/>
    </linearGradient>
    <polygon class="st18" points="80.1,91 80.1,91 80.2,91 80.2,91 80.2,91 80.2,91 80.3,91 80.3,91 80.3,91 80.4,91 80.4,91        80.4,91 80.4,91 80.5,91 80.5,91 80.5,91 80.6,91 80.6,91 80.6,91 80.6,91 80.7,91 80.7,91 80.7,91 80.8,91 80.8,91 80.8,91        80.8,91 80.9,91 80.9,91 80.9,91 81,91 81,91 81,91 81,91 81.1,91 81.1,91 81.1,91 81.2,91 81.2,91 81.2,91 81.2,91 81.3,91        81.3,91 81.3,91 81.4,91 81.4,91 81.4,91 81.4,91 81.5,91 81.5,91 81.5,91 81.6,91 81.6,91 81.6,91 81.6,91 81.7,91 81.7,91        81.7,91 81.8,91 81.8,91 81.8,91 81.8,91 81.9,91 81.9,91 81.9,91 82,91 82,91 82,91 82,91 82.1,91 82.1,91 82.1,91 82.1,91        82.2,91 82.2,91 82.2,91 82.3,91 82.3,91 82.3,91 82.3,91 82.4,91 82.4,91 82.4,91 82.5,91 82.5,91 82.5,91 82.5,91 82.6,91        82.6,91 82.6,91 82.7,91 82.7,91 82.7,91 82.7,91 82.8,91 82.8,91 82.8,91 82.9,91 82.9,91 82.9,91 82.9,91 83,91 83,91 83,91        83.1,91 83.1,91 83.1,91 83.1,91 83.2,91 83.2,91 83.2,91 83.3,91 83.3,91 83.3,91 83.3,91 83.4,91 83.4,91 83.4,91 83.5,91        83.5,91 83.5,91 83.5,91 83.6,91 83.6,91 83.6,91 83.7,91 83.7,91 83.7,91 83.7,91 83.8,91 83.8,91 83.8,91 83.9,91 83.9,91        83.9,91 83.9,91 84,91 84,91 84,91 84.1,91 84.1,91 84.1,91 84.1,91 84.2,91 84.2,91 84.2,91 84.3,91 84.3,91 84.3,91 84.3,91        84.4,91 84.4,91 84.4,91 84.5,91 84.5,91 84.5,91 84.5,91 84.6,91 84.6,91 84.6,91 84.6,91 84.7,91 84.7,91 84.7,91 84.8,91        84.8,91 84.8,91 84.8,91 84.9,91 84.9,91 84.9,91 85,91 85,91 85,91 85,91 85.1,91 85.1,91 85.1,91 85.2,91 85.2,91 85.2,91        85.2,91 85.3,91 85.3,91 85.3,91 85.4,91 85.4,91 85.4,91 85.4,91 85.5,91 85.5,91 85.5,88.9 85.5,88.9 85.4,88.9 85.4,88.9        85.4,88.9 85.4,88.9 85.3,88.9 85.3,88.9 85.3,88.9 85.2,88.9 85.2,88.9 85.2,88.9 85.2,88.9 85.1,88.9 85.1,88.9 85.1,88.9        85,88.9 85,88.9 85,88.9 85,88.9 84.9,88.9 84.9,88.9 84.9,88.9 84.8,88.9 84.8,88.9 84.8,88.9 84.8,88.9 84.7,88.9 84.7,88.9        84.7,88.9 84.6,88.9 84.6,88.9 84.6,88.9 84.6,88.9 84.5,88.9 84.5,88.9 84.5,88.9 84.5,88.9 84.4,88.9 84.4,88.9 84.4,88.9        84.3,88.9 84.3,88.9 84.3,88.9 84.3,88.9 84.2,88.9 84.2,88.9 84.2,88.9 84.1,88.9 84.1,88.9 84.1,88.9 84.1,88.9 84,88.9        84,88.9 84,88.9 83.9,88.9 83.9,88.9 83.9,88.9 83.9,88.9 83.8,88.9 83.8,88.9 83.8,88.9 83.7,88.9 83.7,88.9 83.7,88.9        83.7,88.9 83.6,88.9 83.6,88.9 83.6,88.9 83.5,88.9 83.5,88.9 83.5,88.9 83.5,88.9 83.4,88.9 83.4,88.9 83.4,88.9 83.3,88.9        83.3,88.9 83.3,88.9 83.3,88.9 83.2,88.9 83.2,88.9 83.2,88.9 83.1,88.9 83.1,88.9 83.1,88.9 83.1,88.9 83,88.9 83,88.9        83,88.9 82.9,88.9 82.9,88.9 82.9,88.9 82.9,88.9 82.8,88.9 82.8,88.9 82.8,88.9 82.7,88.9 82.7,88.9 82.7,88.9 82.7,88.9        82.6,88.9 82.6,88.9 82.6,88.9 82.5,88.9 82.5,88.9 82.5,88.9 82.5,88.9 82.4,88.9 82.4,88.9 82.4,88.9 82.3,88.9 82.3,88.9        82.3,88.9 82.3,88.9 82.2,88.9 82.2,88.9 82.2,88.9 82.1,88.9 82.1,88.9 82.1,88.9 82.1,88.9 82,88.9 82,88.9 82,88.9 82,88.9        81.9,88.9 81.9,88.9 81.9,88.9 81.8,88.9 81.8,88.9 81.8,88.9 81.8,88.9 81.7,88.9 81.7,88.9 81.7,88.9 81.6,88.9 81.6,88.9        81.6,88.9 81.6,88.9 81.5,88.9 81.5,88.9 81.5,88.9 81.4,88.9 81.4,88.9 81.4,88.9 81.4,88.9 81.3,88.9 81.3,88.9 81.3,88.9        81.2,88.9 81.2,88.9 81.2,88.9 81.2,88.9 81.1,88.9 81.1,88.9 81.1,88.9 81,88.9 81,88.9 81,88.9 81,88.9 80.9,88.9 80.9,88.9        80.9,88.9 80.8,88.9 80.8,88.9 80.8,88.9 80.8,88.9 80.7,88.9 80.7,88.9 80.7,88.9 80.6,88.9 80.6,88.9 80.6,88.9 80.6,88.9        80.5,88.9 80.5,88.9 80.5,88.9 80.4,88.9 80.4,88.9 80.4,88.9 80.4,88.9 80.3,88.9 80.3,88.9 80.3,88.9 80.2,88.9 80.2,88.9        80.2,88.9 80.2,88.9 80.1,88.9 80.1,88.9 80.1,88.9 80,88.9 80,91 80.1,91      "/>
    <linearGradient id="SVGID_13_" gradientUnits="userSpaceOnUse" x1="83.8653" y1="166.6087" x2="83.8653" y2="40.4035">
      <stop offset="0" style="stop-color:#59FF7F"/>
      <stop offset="1" style="stop-color:#6BFBFF"/>
    </linearGradient>
    <polygon class="st19" points="85.5,94.4 85.4,94.4 85.4,94.4 85.4,94.4 85.4,94.4 85.4,94.4 85.3,94.4 85.3,94.4 85.3,94.4        85.3,94.4 85.3,94.4 85.3,94.4 85.2,94.4 85.2,94.4 85.2,94.4 85.2,94.4 85.2,94.4 85.2,94.4 85.1,94.4 85.1,94.4 85.1,94.4        85.1,94.4 85.1,94.4 85.1,94.4 85,94.4 85,94.4 85,94.4 85,94.4 85,94.4 85,94.4 84.9,94.4 84.9,94.4 84.9,94.4 84.9,94.4        84.9,94.4 84.9,94.4 84.8,94.4 84.8,94.4 84.8,94.4 84.8,94.4 84.8,94.4 84.8,94.4 84.7,94.4 84.7,94.4 84.7,94.4 84.7,94.4        84.7,94.4 84.6,94.4 84.6,94.4 84.6,94.4 84.6,94.4 84.6,94.4 84.6,94.4 84.5,94.4 84.5,94.4 84.5,94.4 84.5,94.4 84.5,94.4        84.5,94.4 84.4,94.4 84.4,94.4 84.4,94.4 84.4,94.4 84.4,94.4 84.4,94.4 84.3,94.4 84.3,94.4 84.3,94.4 84.3,94.4 84.3,94.4        84.3,94.4 84.2,94.4 84.2,94.4 84.2,94.4 84.2,94.4 84.2,94.4 84.2,94.4 84.1,94.4 84.1,94.4 84.1,94.4 84.1,94.4 84.1,94.4        84.1,94.4 84,94.4 84,94.4 84,94.4 84,94.4 84,94.4 84,94.4 83.9,94.4 83.9,94.4 83.9,94.4 83.9,94.4 83.9,94.4 83.8,94.4        83.8,94.4 83.8,94.4 83.8,94.4 83.8,94.4 83.8,94.4 83.7,94.4 83.7,94.4 83.7,94.4 83.7,94.4 83.7,94.4 83.7,94.4 83.6,94.4        83.6,94.4 83.6,94.4 83.6,94.4 83.6,94.4 83.6,94.4 83.5,94.4 83.5,94.4 83.5,94.4 83.5,94.4 83.5,94.4 83.5,94.4 83.4,94.4        83.4,94.4 83.4,94.4 83.4,94.4 83.4,94.4 83.4,94.4 83.3,94.4 83.3,94.4 83.3,94.4 83.3,94.4 83.3,94.4 83.3,94.4 83.2,94.4        83.2,94.4 83.2,94.4 83.2,94.4 83.2,94.4 83.1,94.4 83.1,94.4 83.1,94.4 83.1,94.4 83.1,94.4 83.1,94.4 83,94.4 83,94.4        83,94.4 83,94.4 83,94.4 83,94.4 82.9,94.4 82.9,94.4 82.9,94.4 82.9,94.4 82.9,94.4 82.9,94.4 82.8,94.4 82.8,94.4 82.8,94.4        82.8,94.4 82.8,94.4 82.8,94.4 82.7,94.4 82.7,94.4 82.7,94.4 82.7,94.4 82.7,94.4 82.7,94.4 82.6,94.4 82.6,94.4 82.6,94.4        82.6,94.4 82.6,94.4 82.6,94.4 82.5,94.4 82.5,94.4 82.5,94.4 82.5,94.4 82.5,94.4 82.5,94.4 82.4,94.4 82.4,94.4 82.4,94.4        82.4,94.4 82.4,94.4 82.3,94.4 82.3,94.4 82.3,94.4 82.3,94.4 82.3,94.4 82.3,94.4 82.2,94.4 82.2,94.4 82.2,96.5 82.2,96.5        82.3,96.5 82.3,96.5 82.3,96.5 82.3,96.5 82.3,96.5 82.3,96.5 82.4,96.5 82.4,96.5 82.4,96.5 82.4,96.5 82.4,96.5 82.5,96.5        82.5,96.5 82.5,96.5 82.5,96.5 82.5,96.5 82.5,96.5 82.6,96.5 82.6,96.5 82.6,96.5 82.6,96.5 82.6,96.5 82.6,96.5 82.7,96.5        82.7,96.5 82.7,96.5 82.7,96.5 82.7,96.5 82.7,96.5 82.8,96.5 82.8,96.5 82.8,96.5 82.8,96.5 82.8,96.5 82.8,96.5 82.9,96.5        82.9,96.5 82.9,96.5 82.9,96.5 82.9,96.5 82.9,96.5 83,96.5 83,96.5 83,96.5 83,96.5 83,96.5 83,96.5 83.1,96.5 83.1,96.5        83.1,96.5 83.1,96.5 83.1,96.5 83.1,96.5 83.2,96.5 83.2,96.5 83.2,96.5 83.2,96.5 83.2,96.5 83.3,96.5 83.3,96.5 83.3,96.5        83.3,96.5 83.3,96.5 83.3,96.5 83.4,96.5 83.4,96.5 83.4,96.5 83.4,96.5 83.4,96.5 83.4,96.5 83.5,96.5 83.5,96.5 83.5,96.5        83.5,96.5 83.5,96.5 83.5,96.5 83.6,96.5 83.6,96.5 83.6,96.5 83.6,96.5 83.6,96.5 83.6,96.5 83.7,96.5 83.7,96.5 83.7,96.5        83.7,96.5 83.7,96.5 83.7,96.5 83.8,96.5 83.8,96.5 83.8,96.5 83.8,96.5 83.8,96.5 83.8,96.5 83.9,96.5 83.9,96.5 83.9,96.5        83.9,96.5 83.9,96.5 84,96.5 84,96.5 84,96.5 84,96.5 84,96.5 84,96.5 84.1,96.5 84.1,96.5 84.1,96.5 84.1,96.5 84.1,96.5        84.1,96.5 84.2,96.5 84.2,96.5 84.2,96.5 84.2,96.5 84.2,96.5 84.2,96.5 84.3,96.5 84.3,96.5 84.3,96.5 84.3,96.5 84.3,96.5        84.3,96.5 84.4,96.5 84.4,96.5 84.4,96.5 84.4,96.5 84.4,96.5 84.4,96.5 84.5,96.5 84.5,96.5 84.5,96.5 84.5,96.5 84.5,96.5        84.5,96.5 84.6,96.5 84.6,96.5 84.6,96.5 84.6,96.5 84.6,96.5 84.6,96.5 84.7,96.5 84.7,96.5 84.7,96.5 84.7,96.5 84.7,96.5        84.8,96.5 84.8,96.5 84.8,96.5 84.8,96.5 84.8,96.5 84.8,96.5 84.9,96.5 84.9,96.5 84.9,96.5 84.9,96.5 84.9,96.5 84.9,96.5        85,96.5 85,96.5 85,96.5 85,96.5 85,96.5 85,96.5 85.1,96.5 85.1,96.5 85.1,96.5 85.1,96.5 85.1,96.5 85.1,96.5 85.2,96.5        85.2,96.5 85.2,96.5 85.2,96.5 85.2,96.5 85.2,96.5 85.3,96.5 85.3,96.5 85.3,96.5 85.3,96.5 85.3,96.5 85.3,96.5 85.4,96.5        85.4,96.5 85.4,96.5 85.4,96.5 85.4,96.5 85.5,96.5 85.5,96.5 85.5,96.5 85.5,96.5 85.5,94.4 85.5,94.4 85.5,94.4      "/>
    <linearGradient id="SVGID_14_" gradientUnits="userSpaceOnUse" x1="82.7745" y1="166.6087" x2="82.7745" y2="40.4035">
      <stop offset="0" style="stop-color:#59FF7F"/>
      <stop offset="1" style="stop-color:#6BFBFF"/>
    </linearGradient>
    <polygon class="st20" points="80.1,101.9 80.1,101.9 80.2,101.9 80.2,101.9 80.2,101.9 80.2,101.9 80.3,101.9 80.3,101.9        80.3,101.9 80.4,101.9 80.4,101.9 80.4,101.9 80.4,101.9 80.5,101.9 80.5,101.9 80.5,101.9 80.6,101.9 80.6,101.9 80.6,101.9        80.6,101.9 80.7,101.9 80.7,101.9 80.7,101.9 80.8,101.9 80.8,101.9 80.8,101.9 80.8,101.9 80.9,101.9 80.9,101.9 80.9,101.9        81,101.9 81,101.9 81,101.9 81,101.9 81.1,101.9 81.1,101.9 81.1,101.9 81.2,101.9 81.2,101.9 81.2,101.9 81.2,101.9        81.3,101.9 81.3,101.9 81.3,101.9 81.4,101.9 81.4,101.9 81.4,101.9 81.4,101.9 81.5,101.9 81.5,101.9 81.5,101.9 81.6,101.9        81.6,101.9 81.6,101.9 81.6,101.9 81.7,101.9 81.7,101.9 81.7,101.9 81.8,101.9 81.8,101.9 81.8,101.9 81.8,101.9 81.9,101.9        81.9,101.9 81.9,101.9 82,101.9 82,101.9 82,101.9 82,101.9 82.1,101.9 82.1,101.9 82.1,101.9 82.1,101.9 82.2,101.9        82.2,101.9 82.2,101.9 82.3,101.9 82.3,101.9 82.3,101.9 82.3,101.9 82.4,101.9 82.4,101.9 82.4,101.9 82.5,101.9 82.5,101.9        82.5,101.9 82.5,101.9 82.6,101.9 82.6,101.9 82.6,101.9 82.7,101.9 82.7,101.9 82.7,101.9 82.7,101.9 82.8,101.9 82.8,101.9        82.8,101.9 82.9,101.9 82.9,101.9 82.9,101.9 82.9,101.9 83,101.9 83,101.9 83,101.9 83.1,101.9 83.1,101.9 83.1,101.9        83.1,101.9 83.2,101.9 83.2,101.9 83.2,101.9 83.3,101.9 83.3,101.9 83.3,101.9 83.3,101.9 83.4,101.9 83.4,101.9 83.4,101.9        83.5,101.9 83.5,101.9 83.5,101.9 83.5,101.9 83.6,101.9 83.6,101.9 83.6,101.9 83.7,101.9 83.7,101.9 83.7,101.9 83.7,101.9        83.8,101.9 83.8,101.9 83.8,101.9 83.9,101.9 83.9,101.9 83.9,101.9 83.9,101.9 84,101.9 84,101.9 84,101.9 84.1,101.9        84.1,101.9 84.1,101.9 84.1,101.9 84.2,101.9 84.2,101.9 84.2,101.9 84.3,101.9 84.3,101.9 84.3,101.9 84.3,101.9 84.4,101.9        84.4,101.9 84.4,101.9 84.5,101.9 84.5,101.9 84.5,101.9 84.5,101.9 84.6,101.9 84.6,101.9 84.6,101.9 84.6,101.9 84.7,101.9        84.7,101.9 84.7,101.9 84.8,101.9 84.8,101.9 84.8,101.9 84.8,101.9 84.9,101.9 84.9,101.9 84.9,101.9 85,101.9 85,101.9        85,101.9 85,101.9 85.1,101.9 85.1,101.9 85.1,101.9 85.2,101.9 85.2,101.9 85.2,101.9 85.2,101.9 85.3,101.9 85.3,101.9        85.3,101.9 85.4,101.9 85.4,101.9 85.4,101.9 85.4,101.9 85.5,101.9 85.5,101.9 85.5,99.8 85.5,99.8 85.4,99.8 85.4,99.8        85.4,99.8 85.4,99.8 85.3,99.8 85.3,99.8 85.3,99.8 85.2,99.8 85.2,99.8 85.2,99.8 85.2,99.8 85.1,99.8 85.1,99.8 85.1,99.8        85,99.8 85,99.8 85,99.8 85,99.8 84.9,99.8 84.9,99.8 84.9,99.8 84.8,99.8 84.8,99.8 84.8,99.8 84.8,99.8 84.7,99.8 84.7,99.8        84.7,99.8 84.6,99.8 84.6,99.8 84.6,99.8 84.6,99.8 84.5,99.8 84.5,99.8 84.5,99.8 84.5,99.8 84.4,99.8 84.4,99.8 84.4,99.8        84.3,99.8 84.3,99.8 84.3,99.8 84.3,99.8 84.2,99.8 84.2,99.8 84.2,99.8 84.1,99.8 84.1,99.8 84.1,99.8 84.1,99.8 84,99.8        84,99.8 84,99.8 83.9,99.8 83.9,99.8 83.9,99.8 83.9,99.8 83.8,99.8 83.8,99.8 83.8,99.8 83.7,99.8 83.7,99.8 83.7,99.8        83.7,99.8 83.6,99.8 83.6,99.8 83.6,99.8 83.5,99.8 83.5,99.8 83.5,99.8 83.5,99.8 83.4,99.8 83.4,99.8 83.4,99.8 83.3,99.8        83.3,99.8 83.3,99.8 83.3,99.8 83.2,99.8 83.2,99.8 83.2,99.8 83.1,99.8 83.1,99.8 83.1,99.8 83.1,99.8 83,99.8 83,99.8        83,99.8 82.9,99.8 82.9,99.8 82.9,99.8 82.9,99.8 82.8,99.8 82.8,99.8 82.8,99.8 82.7,99.8 82.7,99.8 82.7,99.8 82.7,99.8        82.6,99.8 82.6,99.8 82.6,99.8 82.5,99.8 82.5,99.8 82.5,99.8 82.5,99.8 82.4,99.8 82.4,99.8 82.4,99.8 82.3,99.8 82.3,99.8        82.3,99.8 82.3,99.8 82.2,99.8 82.2,99.8 82.2,99.8 82.1,99.8 82.1,99.8 82.1,99.8 82.1,99.8 82,99.8 82,99.8 82,99.8 82,99.8        81.9,99.8 81.9,99.8 81.9,99.8 81.8,99.8 81.8,99.8 81.8,99.8 81.8,99.8 81.7,99.8 81.7,99.8 81.7,99.8 81.6,99.8 81.6,99.8        81.6,99.8 81.6,99.8 81.5,99.8 81.5,99.8 81.5,99.8 81.4,99.8 81.4,99.8 81.4,99.8 81.4,99.8 81.3,99.8 81.3,99.8 81.3,99.8        81.2,99.8 81.2,99.8 81.2,99.8 81.2,99.8 81.1,99.8 81.1,99.8 81.1,99.8 81,99.8 81,99.8 81,99.8 81,99.8 80.9,99.8 80.9,99.8        80.9,99.8 80.8,99.8 80.8,99.8 80.8,99.8 80.8,99.8 80.7,99.8 80.7,99.8 80.7,99.8 80.6,99.8 80.6,99.8 80.6,99.8 80.6,99.8        80.5,99.8 80.5,99.8 80.5,99.8 80.4,99.8 80.4,99.8 80.4,99.8 80.4,99.8 80.3,99.8 80.3,99.8 80.3,99.8 80.2,99.8 80.2,99.8        80.2,99.8 80.2,99.8 80.1,99.8 80.1,99.8 80.1,99.8 80,99.8 80,101.9 80.1,101.9      "/>
    <linearGradient id="SVGID_15_" gradientUnits="userSpaceOnUse" x1="83.8653" y1="166.6087" x2="83.8653" y2="40.4035">
      <stop offset="0" style="stop-color:#59FF7F"/>
      <stop offset="1" style="stop-color:#6BFBFF"/>
    </linearGradient>
    <polygon class="st21" points="85.5,105.3 85.4,105.3 85.4,105.3 85.4,105.3 85.4,105.3 85.4,105.3 85.3,105.3 85.3,105.3        85.3,105.3 85.3,105.3 85.3,105.3 85.3,105.3 85.2,105.3 85.2,105.3 85.2,105.3 85.2,105.3 85.2,105.3 85.2,105.3 85.1,105.3        85.1,105.3 85.1,105.3 85.1,105.3 85.1,105.3 85.1,105.3 85,105.3 85,105.3 85,105.3 85,105.3 85,105.3 85,105.3 84.9,105.3        84.9,105.3 84.9,105.3 84.9,105.3 84.9,105.3 84.9,105.3 84.8,105.3 84.8,105.3 84.8,105.3 84.8,105.3 84.8,105.3 84.8,105.3        84.7,105.3 84.7,105.3 84.7,105.3 84.7,105.3 84.7,105.3 84.6,105.3 84.6,105.3 84.6,105.3 84.6,105.3 84.6,105.3 84.6,105.3        84.5,105.3 84.5,105.3 84.5,105.3 84.5,105.3 84.5,105.3 84.5,105.3 84.4,105.3 84.4,105.3 84.4,105.3 84.4,105.3 84.4,105.3        84.4,105.3 84.3,105.3 84.3,105.3 84.3,105.3 84.3,105.3 84.3,105.3 84.3,105.3 84.2,105.3 84.2,105.3 84.2,105.3 84.2,105.3        84.2,105.3 84.2,105.3 84.1,105.3 84.1,105.3 84.1,105.3 84.1,105.3 84.1,105.3 84.1,105.3 84,105.3 84,105.3 84,105.3        84,105.3 84,105.3 84,105.3 83.9,105.3 83.9,105.3 83.9,105.3 83.9,105.3 83.9,105.3 83.8,105.3 83.8,105.3 83.8,105.3        83.8,105.3 83.8,105.3 83.8,105.3 83.7,105.3 83.7,105.3 83.7,105.3 83.7,105.3 83.7,105.3 83.7,105.3 83.6,105.3 83.6,105.3        83.6,105.3 83.6,105.3 83.6,105.3 83.6,105.3 83.5,105.3 83.5,105.3 83.5,105.3 83.5,105.3 83.5,105.3 83.5,105.3 83.4,105.3        83.4,105.3 83.4,105.3 83.4,105.3 83.4,105.3 83.4,105.3 83.3,105.3 83.3,105.3 83.3,105.3 83.3,105.3 83.3,105.3 83.3,105.3        83.2,105.3 83.2,105.3 83.2,105.3 83.2,105.3 83.2,105.3 83.1,105.3 83.1,105.3 83.1,105.3 83.1,105.3 83.1,105.3 83.1,105.3        83,105.3 83,105.3 83,105.3 83,105.3 83,105.3 83,105.3 82.9,105.3 82.9,105.3 82.9,105.3 82.9,105.3 82.9,105.3 82.9,105.3        82.8,105.3 82.8,105.3 82.8,105.3 82.8,105.3 82.8,105.3 82.8,105.3 82.7,105.3 82.7,105.3 82.7,105.3 82.7,105.3 82.7,105.3        82.7,105.3 82.6,105.3 82.6,105.3 82.6,105.3 82.6,105.3 82.6,105.3 82.6,105.3 82.5,105.3 82.5,105.3 82.5,105.3 82.5,105.3        82.5,105.3 82.5,105.3 82.4,105.3 82.4,105.3 82.4,105.3 82.4,105.3 82.4,105.3 82.3,105.3 82.3,105.3 82.3,105.3 82.3,105.3        82.3,105.3 82.3,105.3 82.2,105.3 82.2,105.3 82.2,107.4 82.2,107.4 82.3,107.4 82.3,107.4 82.3,107.4 82.3,107.4 82.3,107.4        82.3,107.4 82.4,107.4 82.4,107.4 82.4,107.4 82.4,107.4 82.4,107.4 82.5,107.4 82.5,107.4 82.5,107.4 82.5,107.4 82.5,107.4        82.5,107.4 82.6,107.4 82.6,107.4 82.6,107.4 82.6,107.4 82.6,107.4 82.6,107.4 82.7,107.4 82.7,107.4 82.7,107.4 82.7,107.4        82.7,107.4 82.7,107.4 82.8,107.4 82.8,107.4 82.8,107.4 82.8,107.4 82.8,107.4 82.8,107.4 82.9,107.4 82.9,107.4 82.9,107.4        82.9,107.4 82.9,107.4 82.9,107.4 83,107.4 83,107.4 83,107.4 83,107.4 83,107.4 83,107.4 83.1,107.4 83.1,107.4 83.1,107.4        83.1,107.4 83.1,107.4 83.1,107.4 83.2,107.4 83.2,107.4 83.2,107.4 83.2,107.4 83.2,107.4 83.3,107.4 83.3,107.4 83.3,107.4        83.3,107.4 83.3,107.4 83.3,107.4 83.4,107.4 83.4,107.4 83.4,107.4 83.4,107.4 83.4,107.4 83.4,107.4 83.5,107.4 83.5,107.4        83.5,107.4 83.5,107.4 83.5,107.4 83.5,107.4 83.6,107.4 83.6,107.4 83.6,107.4 83.6,107.4 83.6,107.4 83.6,107.4 83.7,107.4        83.7,107.4 83.7,107.4 83.7,107.4 83.7,107.4 83.7,107.4 83.8,107.4 83.8,107.4 83.8,107.4 83.8,107.4 83.8,107.4 83.8,107.4        83.9,107.4 83.9,107.4 83.9,107.4 83.9,107.4 83.9,107.4 84,107.4 84,107.4 84,107.4 84,107.4 84,107.4 84,107.4 84.1,107.4        84.1,107.4 84.1,107.4 84.1,107.4 84.1,107.4 84.1,107.4 84.2,107.4 84.2,107.4 84.2,107.4 84.2,107.4 84.2,107.4 84.2,107.4        84.3,107.4 84.3,107.4 84.3,107.4 84.3,107.4 84.3,107.4 84.3,107.4 84.4,107.4 84.4,107.4 84.4,107.4 84.4,107.4 84.4,107.4        84.4,107.4 84.5,107.4 84.5,107.4 84.5,107.4 84.5,107.4 84.5,107.4 84.5,107.4 84.6,107.4 84.6,107.4 84.6,107.4 84.6,107.4        84.6,107.4 84.6,107.4 84.7,107.4 84.7,107.4 84.7,107.4 84.7,107.4 84.7,107.4 84.8,107.4 84.8,107.4 84.8,107.4 84.8,107.4        84.8,107.4 84.8,107.4 84.9,107.4 84.9,107.4 84.9,107.4 84.9,107.4 84.9,107.4 84.9,107.4 85,107.4 85,107.4 85,107.4        85,107.4 85,107.4 85,107.4 85.1,107.4 85.1,107.4 85.1,107.4 85.1,107.4 85.1,107.4 85.1,107.4 85.2,107.4 85.2,107.4        85.2,107.4 85.2,107.4 85.2,107.4 85.2,107.4 85.3,107.4 85.3,107.4 85.3,107.4 85.3,107.4 85.3,107.4 85.3,107.4 85.4,107.4        85.4,107.4 85.4,107.4 85.4,107.4 85.4,107.4 85.5,107.4 85.5,107.4 85.5,107.4 85.5,107.4 85.5,105.3 85.5,105.3 85.5,105.3             "/>
    <linearGradient id="SVGID_16_" gradientUnits="userSpaceOnUse" x1="82.7745" y1="166.6087" x2="82.7745" y2="40.4035">
      <stop offset="0" style="stop-color:#59FF7F"/>
      <stop offset="1" style="stop-color:#6BFBFF"/>
    </linearGradient>
    <polygon class="st22" points="82.3,112.8 82.3,112.8 82.3,112.8 82.3,112.8 82.4,112.8 82.4,112.8 82.4,112.8 82.5,112.8        82.5,112.8 82.5,112.8 82.5,112.8 82.6,112.8 82.6,112.8 82.6,112.8 82.7,112.8 82.7,112.8 82.7,112.8 82.7,112.8 82.8,112.8        82.8,112.8 82.8,112.8 82.9,112.8 82.9,112.8 82.9,112.8 82.9,112.8 83,112.8 83,112.8 83,112.8 83.1,112.8 83.1,112.8        83.1,112.8 83.1,112.8 83.2,112.8 83.2,112.8 83.2,112.8 83.3,112.8 83.3,112.8 83.3,112.8 83.3,112.8 83.4,112.8 83.4,112.8        83.4,112.8 83.5,112.8 83.5,112.8 83.5,112.8 83.5,112.8 83.6,112.8 83.6,112.8 83.6,112.8 83.7,112.8 83.7,112.8 83.7,112.8        83.7,112.8 83.8,112.8 83.8,112.8 83.8,112.8 83.9,112.8 83.9,112.8 83.9,112.8 83.9,112.8 84,112.8 84,112.8 84,112.8        84.1,112.8 84.1,112.8 84.1,112.8 84.1,112.8 84.2,112.8 84.2,112.8 84.2,112.8 84.3,112.8 84.3,112.8 84.3,112.8 84.3,112.8        84.4,112.8 84.4,112.8 84.4,112.8 84.5,112.8 84.5,112.8 84.5,112.8 84.5,112.8 84.6,112.8 84.6,112.8 84.6,112.8 84.6,112.8        84.7,112.8 84.7,112.8 84.7,112.8 84.8,112.8 84.8,112.8 84.8,112.8 84.8,112.8 84.9,112.8 84.9,112.8 84.9,112.8 85,112.8        85,112.8 85,112.8 85,112.8 85.1,112.8 85.1,112.8 85.1,112.8 85.2,112.8 85.2,112.8 85.2,112.8 85.2,112.8 85.3,112.8        85.3,112.8 85.3,112.8 85.4,112.8 85.4,112.8 85.4,112.8 85.4,112.8 85.5,112.8 85.5,112.8 85.5,110.7 85.5,110.7 85.4,110.7        85.4,110.7 85.4,110.7 85.4,110.7 85.3,110.7 85.3,110.7 85.3,110.7 85.2,110.7 85.2,110.7 85.2,110.7 85.2,110.7 85.1,110.7        85.1,110.7 85.1,110.7 85,110.7 85,110.7 85,110.7 85,110.7 84.9,110.7 84.9,110.7 84.9,110.7 84.8,110.7 84.8,110.7        84.8,110.7 84.8,110.7 84.7,110.7 84.7,110.7 84.7,110.7 84.6,110.7 84.6,110.7 84.6,110.7 84.6,110.7 84.5,110.7 84.5,110.7        84.5,110.7 84.5,110.7 84.4,110.7 84.4,110.7 84.4,110.7 84.3,110.7 84.3,110.7 84.3,110.7 84.3,110.7 84.2,110.7 84.2,110.7        84.2,110.7 84.1,110.7 84.1,110.7 84.1,110.7 84.1,110.7 84,110.7 84,110.7 84,110.7 83.9,110.7 83.9,110.7 83.9,110.7        83.9,110.7 83.8,110.7 83.8,110.7 83.8,110.7 83.7,110.7 83.7,110.7 83.7,110.7 83.7,110.7 83.6,110.7 83.6,110.7 83.6,110.7        83.5,110.7 83.5,110.7 83.5,110.7 83.5,110.7 83.4,110.7 83.4,110.7 83.4,110.7 83.3,110.7 83.3,110.7 83.3,110.7 83.3,110.7        83.2,110.7 83.2,110.7 83.2,110.7 83.1,110.7 83.1,110.7 83.1,110.7 83.1,110.7 83,110.7 83,110.7 83,110.7 82.9,110.7        82.9,110.7 82.9,110.7 82.9,110.7 82.8,110.7 82.8,110.7 82.8,110.7 82.7,110.7 82.7,110.7 82.7,110.7 82.7,110.7 82.6,110.7        82.6,110.7 82.6,110.7 82.5,110.7 82.5,110.7 82.5,110.7 82.5,110.7 82.4,110.7 82.4,110.7 82.4,110.7 82.3,110.7 82.3,110.7        82.3,110.7 82.3,110.7 82.2,110.7 82.2,110.7 82.2,110.7 82.1,110.7 82.1,110.7 82.1,110.7 82.1,110.7 82,110.7 82,110.7        82,110.7 82,110.7 81.9,110.7 81.9,110.7 81.9,110.7 81.8,110.7 81.8,110.7 81.8,110.7 81.8,110.7 81.7,110.7 81.7,110.7        81.7,110.7 81.6,110.7 81.6,110.7 81.6,110.7 81.6,110.7 81.5,110.7 81.5,110.7 81.5,110.7 81.4,110.7 81.4,110.7 81.4,110.7        81.4,110.7 81.3,110.7 81.3,110.7 81.3,110.7 81.2,110.7 81.2,110.7 81.2,110.7 81.2,110.7 81.1,110.7 81.1,110.7 81.1,110.7        81,110.7 81,110.7 81,110.7 81,110.7 80.9,110.7 80.9,110.7 80.9,110.7 80.8,110.7 80.8,110.7 80.8,110.7 80.8,110.7        80.7,110.7 80.7,110.7 80.7,110.7 80.6,110.7 80.6,110.7 80.6,110.7 80.6,110.7 80.5,110.7 80.5,110.7 80.5,110.7 80.4,110.7        80.4,110.7 80.4,110.7 80.4,110.7 80.3,110.7 80.3,110.7 80.3,110.7 80.2,110.7 80.2,110.7 80.2,110.7 80.2,110.7 80.1,110.7        80.1,110.7 80.1,110.7 80,110.7 80,112.8 80.1,112.8 80.1,112.8 80.1,112.8 80.2,112.8 80.2,112.8 80.2,112.8 80.2,112.8        80.3,112.8 80.3,112.8 80.3,112.8 80.4,112.8 80.4,112.8 80.4,112.8 80.4,112.8 80.5,112.8 80.5,112.8 80.5,112.8 80.6,112.8        80.6,112.8 80.6,112.8 80.6,112.8 80.7,112.8 80.7,112.8 80.7,112.8 80.8,112.8 80.8,112.8 80.8,112.8 80.8,112.8 80.9,112.8        80.9,112.8 80.9,112.8 81,112.8 81,112.8 81,112.8 81,112.8 81.1,112.8 81.1,112.8 81.1,112.8 81.2,112.8 81.2,112.8        81.2,112.8 81.2,112.8 81.3,112.8 81.3,112.8 81.3,112.8 81.4,112.8 81.4,112.8 81.4,112.8 81.4,112.8 81.5,112.8 81.5,112.8        81.5,112.8 81.6,112.8 81.6,112.8 81.6,112.8 81.6,112.8 81.7,112.8 81.7,112.8 81.7,112.8 81.8,112.8 81.8,112.8 81.8,112.8        81.8,112.8 81.9,112.8 81.9,112.8 81.9,112.8 82,112.8 82,112.8 82,112.8 82,112.8 82.1,112.8 82.1,112.8 82.1,112.8        82.1,112.8 82.2,112.8 82.2,112.8 82.2,112.8      "/>
    <linearGradient id="SVGID_17_" gradientUnits="userSpaceOnUse" x1="112.2251" y1="166.6087" x2="112.2251" y2="40.4035">
      <stop offset="0" style="stop-color:#59FF7F"/>
      <stop offset="1" style="stop-color:#6BFBFF"/>
    </linearGradient>
    <polygon class="st23" points="114.9,78 114.9,78 114.9,78 114.8,78 114.8,78 114.8,78 114.8,78 114.7,78 114.7,78 114.7,78        114.6,78 114.6,78 114.6,78 114.6,78 114.5,78 114.5,78 114.5,78 114.4,78 114.4,78 114.4,78 114.4,78 114.3,78 114.3,78        114.3,78 114.2,78 114.2,78 114.2,78 114.2,78 114.1,78 114.1,78 114.1,78 114,78 114,78 114,78 114,78 113.9,78 113.9,78        113.9,78 113.8,78 113.8,78 113.8,78 113.8,78 113.7,78 113.7,78 113.7,78 113.6,78 113.6,78 113.6,78 113.6,78 113.5,78        113.5,78 113.5,78 113.4,78 113.4,78 113.4,78 113.4,78 113.3,78 113.3,78 113.3,78 113.2,78 113.2,78 113.2,78 113.2,78        113.1,78 113.1,78 113.1,78 113,78 113,78 113,78 113,78 112.9,78 112.9,78 112.9,78 112.8,78 112.8,78 112.8,78 112.8,78        112.7,78 112.7,78 112.7,78 112.7,78 112.6,78 112.6,78 112.6,78 112.5,78 112.5,78 112.5,78 112.5,78 112.4,78 112.4,78        112.4,78 112.3,78 112.3,78 112.3,78 112.3,78 112.2,78 112.2,78 112.2,78 112.1,78 112.1,78 112.1,78 112.1,78 112,78 112,78        112,78 111.9,78 111.9,78 111.9,78 111.9,78 111.8,78 111.8,78 111.8,78 111.7,78 111.7,78 111.7,78 111.7,78 111.6,78        111.6,78 111.6,78 111.5,78 111.5,78 111.5,78 111.5,78 111.4,78 111.4,78 111.4,78 111.3,78 111.3,78 111.3,78 111.3,78        111.2,78 111.2,78 111.2,78 111.1,78 111.1,78 111.1,78 111.1,78 111,78 111,78 111,78 110.9,78 110.9,78 110.9,78 110.9,78        110.8,78 110.8,78 110.8,78 110.7,78 110.7,78 110.7,78 110.7,78 110.6,78 110.6,78 110.6,78 110.5,78 110.5,78 110.5,78        110.5,78 110.4,78 110.4,78 110.4,78 110.4,78 110.3,78 110.3,78 110.3,78 110.2,78 110.2,78 110.2,78 110.2,78 110.1,78        110.1,78 110.1,78 110,78 110,78 110,78 110,78 109.9,78 109.9,78 109.9,78 109.8,78 109.8,78 109.8,78 109.8,78 109.7,78        109.7,78 109.7,78 109.6,78 109.6,78 109.6,78 109.6,78 109.5,78 109.5,78 109.5,80.1 109.5,80.1 109.6,80.1 109.6,80.1        109.6,80.1 109.6,80.1 109.7,80.1 109.7,80.1 109.7,80.1 109.8,80.1 109.8,80.1 109.8,80.1 109.8,80.1 109.9,80.1 109.9,80.1        109.9,80.1 110,80.1 110,80.1 110,80.1 110,80.1 110.1,80.1 110.1,80.1 110.1,80.1 110.2,80.1 110.2,80.1 110.2,80.1        110.2,80.1 110.3,80.1 110.3,80.1 110.3,80.1 110.4,80.1 110.4,80.1 110.4,80.1 110.4,80.1 110.5,80.1 110.5,80.1 110.5,80.1        110.5,80.1 110.6,80.1 110.6,80.1 110.6,80.1 110.7,80.1 110.7,80.1 110.7,80.1 110.7,80.1 110.8,80.1 110.8,80.1 110.8,80.1        110.9,80.1 110.9,80.1 110.9,80.1 110.9,80.1 111,80.1 111,80.1 111,80.1 111.1,80.1 111.1,80.1 111.1,80.1 111.1,80.1        111.2,80.1 111.2,80.1 111.2,80.1 111.3,80.1 111.3,80.1 111.3,80.1 111.3,80.1 111.4,80.1 111.4,80.1 111.4,80.1 111.5,80.1        111.5,80.1 111.5,80.1 111.5,80.1 111.6,80.1 111.6,80.1 111.6,80.1 111.7,80.1 111.7,80.1 111.7,80.1 111.7,80.1 111.8,80.1        111.8,80.1 111.8,80.1 111.9,80.1 111.9,80.1 111.9,80.1 111.9,80.1 112,80.1 112,80.1 112,80.1 112.1,80.1 112.1,80.1        112.1,80.1 112.1,80.1 112.2,80.1 112.2,80.1 112.2,80.1 112.3,80.1 112.3,80.1 112.3,80.1 112.3,80.1 112.4,80.1 112.4,80.1        112.4,80.1 112.5,80.1 112.5,80.1 112.5,80.1 112.5,80.1 112.6,80.1 112.6,80.1 112.6,80.1 112.7,80.1 112.7,80.1 112.7,80.1        112.7,80.1 112.8,80.1 112.8,80.1 112.8,80.1 112.8,80.1 112.9,80.1 112.9,80.1 112.9,80.1 113,80.1 113,80.1 113,80.1        113,80.1 113.1,80.1 113.1,80.1 113.1,80.1 113.2,80.1 113.2,80.1 113.2,80.1 113.2,80.1 113.3,80.1 113.3,80.1 113.3,80.1        113.4,80.1 113.4,80.1 113.4,80.1 113.4,80.1 113.5,80.1 113.5,80.1 113.5,80.1 113.6,80.1 113.6,80.1 113.6,80.1 113.6,80.1        113.7,80.1 113.7,80.1 113.7,80.1 113.8,80.1 113.8,80.1 113.8,80.1 113.8,80.1 113.9,80.1 113.9,80.1 113.9,80.1 114,80.1        114,80.1 114,80.1 114,80.1 114.1,80.1 114.1,80.1 114.1,80.1 114.2,80.1 114.2,80.1 114.2,80.1 114.2,80.1 114.3,80.1        114.3,80.1 114.3,80.1 114.4,80.1 114.4,80.1 114.4,80.1 114.4,80.1 114.5,80.1 114.5,80.1 114.5,80.1 114.6,80.1 114.6,80.1        114.6,80.1 114.6,80.1 114.7,80.1 114.7,80.1 114.7,80.1 114.8,80.1 114.8,80.1 114.8,80.1 114.8,80.1 114.9,80.1 114.9,80.1        114.9,80.1 115,80.1 115,78      "/>
    <linearGradient id="SVGID_18_" gradientUnits="userSpaceOnUse" x1="111.1343" y1="166.6087" x2="111.1343" y2="40.4035">
      <stop offset="0" style="stop-color:#59FF7F"/>
      <stop offset="1" style="stop-color:#6BFBFF"/>
    </linearGradient>
    <polygon class="st24" points="109.5,85.5 109.5,85.5 109.6,85.5 109.6,85.5 109.6,85.5 109.6,85.5 109.6,85.5 109.7,85.5        109.7,85.5 109.7,85.5 109.7,85.5 109.7,85.5 109.7,85.5 109.8,85.5 109.8,85.5 109.8,85.5 109.8,85.5 109.8,85.5 109.8,85.5        109.9,85.5 109.9,85.5 109.9,85.5 109.9,85.5 109.9,85.5 109.9,85.5 110,85.5 110,85.5 110,85.5 110,85.5 110,85.5 110,85.5        110.1,85.5 110.1,85.5 110.1,85.5 110.1,85.5 110.1,85.5 110.1,85.5 110.2,85.5 110.2,85.5 110.2,85.5 110.2,85.5 110.2,85.5        110.2,85.5 110.3,85.5 110.3,85.5 110.3,85.5 110.3,85.5 110.3,85.5 110.4,85.5 110.4,85.5 110.4,85.5 110.4,85.5 110.4,85.5        110.4,85.5 110.5,85.5 110.5,85.5 110.5,85.5 110.5,85.5 110.5,85.5 110.5,85.5 110.6,85.5 110.6,85.5 110.6,85.5 110.6,85.5        110.6,85.5 110.6,85.5 110.7,85.5 110.7,85.5 110.7,85.5 110.7,85.5 110.7,85.5 110.7,85.5 110.8,85.5 110.8,85.5 110.8,85.5        110.8,85.5 110.8,85.5 110.8,85.5 110.9,85.5 110.9,85.5 110.9,85.5 110.9,85.5 110.9,85.5 110.9,85.5 111,85.5 111,85.5        111,85.5 111,85.5 111,85.5 111,85.5 111.1,85.5 111.1,85.5 111.1,85.5 111.1,85.5 111.1,85.5 111.2,85.5 111.2,85.5        111.2,85.5 111.2,85.5 111.2,85.5 111.2,85.5 111.3,85.5 111.3,85.5 111.3,85.5 111.3,85.5 111.3,85.5 111.3,85.5 111.4,85.5        111.4,85.5 111.4,85.5 111.4,85.5 111.4,85.5 111.4,85.5 111.5,85.5 111.5,85.5 111.5,85.5 111.5,85.5 111.5,85.5 111.5,85.5        111.6,85.5 111.6,85.5 111.6,85.5 111.6,85.5 111.6,85.5 111.6,85.5 111.7,85.5 111.7,85.5 111.7,85.5 111.7,85.5 111.7,85.5        111.7,85.5 111.8,85.5 111.8,85.5 111.8,85.5 111.8,85.5 111.8,85.5 111.9,85.5 111.9,85.5 111.9,85.5 111.9,85.5 111.9,85.5        111.9,85.5 112,85.5 112,85.5 112,85.5 112,85.5 112,85.5 112,85.5 112.1,85.5 112.1,85.5 112.1,85.5 112.1,85.5 112.1,85.5        112.1,85.5 112.2,85.5 112.2,85.5 112.2,85.5 112.2,85.5 112.2,85.5 112.2,85.5 112.3,85.5 112.3,85.5 112.3,85.5 112.3,85.5        112.3,85.5 112.3,85.5 112.4,85.5 112.4,85.5 112.4,85.5 112.4,85.5 112.4,85.5 112.4,85.5 112.5,85.5 112.5,85.5 112.5,85.5        112.5,85.5 112.5,85.5 112.5,85.5 112.6,85.5 112.6,85.5 112.6,85.5 112.6,85.5 112.6,85.5 112.7,85.5 112.7,85.5 112.7,85.5        112.7,85.5 112.7,85.5 112.7,85.5 112.8,85.5 112.8,85.5 112.8,83.5 112.8,83.5 112.7,83.5 112.7,83.5 112.7,83.5 112.7,83.5        112.7,83.5 112.7,83.5 112.6,83.5 112.6,83.5 112.6,83.5 112.6,83.5 112.6,83.5 112.5,83.5 112.5,83.5 112.5,83.5 112.5,83.5        112.5,83.5 112.5,83.5 112.4,83.5 112.4,83.5 112.4,83.5 112.4,83.5 112.4,83.5 112.4,83.5 112.3,83.5 112.3,83.5 112.3,83.5        112.3,83.5 112.3,83.5 112.3,83.5 112.2,83.5 112.2,83.5 112.2,83.5 112.2,83.5 112.2,83.5 112.2,83.5 112.1,83.5 112.1,83.5        112.1,83.5 112.1,83.5 112.1,83.5 112.1,83.5 112,83.5 112,83.5 112,83.5 112,83.5 112,83.5 112,83.5 111.9,83.5 111.9,83.5        111.9,83.5 111.9,83.5 111.9,83.5 111.9,83.5 111.8,83.5 111.8,83.5 111.8,83.5 111.8,83.5 111.8,83.5 111.7,83.5 111.7,83.5        111.7,83.5 111.7,83.5 111.7,83.5 111.7,83.5 111.6,83.5 111.6,83.5 111.6,83.5 111.6,83.5 111.6,83.5 111.6,83.5 111.5,83.5        111.5,83.5 111.5,83.5 111.5,83.5 111.5,83.5 111.5,83.5 111.4,83.5 111.4,83.5 111.4,83.5 111.4,83.5 111.4,83.5 111.4,83.5        111.3,83.5 111.3,83.5 111.3,83.5 111.3,83.5 111.3,83.5 111.3,83.5 111.2,83.5 111.2,83.5 111.2,83.5 111.2,83.5 111.2,83.5        111.2,83.5 111.1,83.5 111.1,83.5 111.1,83.5 111.1,83.5 111.1,83.5 111,83.5 111,83.5 111,83.5 111,83.5 111,83.5 111,83.5        110.9,83.5 110.9,83.5 110.9,83.5 110.9,83.5 110.9,83.5 110.9,83.5 110.8,83.5 110.8,83.5 110.8,83.5 110.8,83.5 110.8,83.5        110.8,83.5 110.7,83.5 110.7,83.5 110.7,83.5 110.7,83.5 110.7,83.5 110.7,83.5 110.6,83.5 110.6,83.5 110.6,83.5 110.6,83.5        110.6,83.5 110.6,83.5 110.5,83.5 110.5,83.5 110.5,83.5 110.5,83.5 110.5,83.5 110.5,83.5 110.4,83.5 110.4,83.5 110.4,83.5        110.4,83.5 110.4,83.5 110.4,83.5 110.3,83.5 110.3,83.5 110.3,83.5 110.3,83.5 110.3,83.5 110.2,83.5 110.2,83.5 110.2,83.5        110.2,83.5 110.2,83.5 110.2,83.5 110.1,83.5 110.1,83.5 110.1,83.5 110.1,83.5 110.1,83.5 110.1,83.5 110,83.5 110,83.5        110,83.5 110,83.5 110,83.5 110,83.5 109.9,83.5 109.9,83.5 109.9,83.5 109.9,83.5 109.9,83.5 109.9,83.5 109.8,83.5        109.8,83.5 109.8,83.5 109.8,83.5 109.8,83.5 109.8,83.5 109.7,83.5 109.7,83.5 109.7,83.5 109.7,83.5 109.7,83.5 109.7,83.5        109.6,83.5 109.6,83.5 109.6,83.5 109.6,83.5 109.6,83.5 109.5,83.5 109.5,83.5 109.5,83.5 109.5,83.5 109.5,85.5 109.5,85.5             "/>
    <linearGradient id="SVGID_19_" gradientUnits="userSpaceOnUse" x1="112.2251" y1="166.6087" x2="112.2251" y2="40.4035">
      <stop offset="0" style="stop-color:#59FF7F"/>
      <stop offset="1" style="stop-color:#6BFBFF"/>
    </linearGradient>
    <polygon class="st25" points="114.9,88.9 114.9,88.9 114.8,88.9 114.8,88.9 114.8,88.9 114.8,88.9 114.7,88.9 114.7,88.9        114.7,88.9 114.6,88.9 114.6,88.9 114.6,88.9 114.6,88.9 114.5,88.9 114.5,88.9 114.5,88.9 114.4,88.9 114.4,88.9 114.4,88.9        114.4,88.9 114.3,88.9 114.3,88.9 114.3,88.9 114.2,88.9 114.2,88.9 114.2,88.9 114.2,88.9 114.1,88.9 114.1,88.9 114.1,88.9        114,88.9 114,88.9 114,88.9 114,88.9 113.9,88.9 113.9,88.9 113.9,88.9 113.8,88.9 113.8,88.9 113.8,88.9 113.8,88.9        113.7,88.9 113.7,88.9 113.7,88.9 113.6,88.9 113.6,88.9 113.6,88.9 113.6,88.9 113.5,88.9 113.5,88.9 113.5,88.9 113.4,88.9        113.4,88.9 113.4,88.9 113.4,88.9 113.3,88.9 113.3,88.9 113.3,88.9 113.2,88.9 113.2,88.9 113.2,88.9 113.2,88.9 113.1,88.9        113.1,88.9 113.1,88.9 113,88.9 113,88.9 113,88.9 113,88.9 112.9,88.9 112.9,88.9 112.9,88.9 112.8,88.9 112.8,88.9        112.8,88.9 112.8,88.9 112.7,88.9 112.7,88.9 112.7,88.9 112.7,88.9 112.6,88.9 112.6,88.9 112.6,88.9 112.5,88.9 112.5,88.9        112.5,88.9 112.5,88.9 112.4,88.9 112.4,88.9 112.4,88.9 112.3,88.9 112.3,88.9 112.3,88.9 112.3,88.9 112.2,88.9 112.2,88.9        112.2,88.9 112.1,88.9 112.1,88.9 112.1,88.9 112.1,88.9 112,88.9 112,88.9 112,88.9 111.9,88.9 111.9,88.9 111.9,88.9        111.9,88.9 111.8,88.9 111.8,88.9 111.8,88.9 111.7,88.9 111.7,88.9 111.7,88.9 111.7,88.9 111.6,88.9 111.6,88.9 111.6,88.9        111.5,88.9 111.5,88.9 111.5,88.9 111.5,88.9 111.4,88.9 111.4,88.9 111.4,88.9 111.3,88.9 111.3,88.9 111.3,88.9 111.3,88.9        111.2,88.9 111.2,88.9 111.2,88.9 111.1,88.9 111.1,88.9 111.1,88.9 111.1,88.9 111,88.9 111,88.9 111,88.9 110.9,88.9        110.9,88.9 110.9,88.9 110.9,88.9 110.8,88.9 110.8,88.9 110.8,88.9 110.7,88.9 110.7,88.9 110.7,88.9 110.7,88.9 110.6,88.9        110.6,88.9 110.6,88.9 110.5,88.9 110.5,88.9 110.5,88.9 110.5,88.9 110.4,88.9 110.4,88.9 110.4,88.9 110.4,88.9 110.3,88.9        110.3,88.9 110.3,88.9 110.2,88.9 110.2,88.9 110.2,88.9 110.2,88.9 110.1,88.9 110.1,88.9 110.1,88.9 110,88.9 110,88.9        110,88.9 110,88.9 109.9,88.9 109.9,88.9 109.9,88.9 109.8,88.9 109.8,88.9 109.8,88.9 109.8,88.9 109.7,88.9 109.7,88.9        109.7,88.9 109.6,88.9 109.6,88.9 109.6,88.9 109.6,88.9 109.5,88.9 109.5,88.9 109.5,91 109.5,91 109.6,91 109.6,91 109.6,91        109.6,91 109.7,91 109.7,91 109.7,91 109.8,91 109.8,91 109.8,91 109.8,91 109.9,91 109.9,91 109.9,91 110,91 110,91 110,91        110,91 110.1,91 110.1,91 110.1,91 110.2,91 110.2,91 110.2,91 110.2,91 110.3,91 110.3,91 110.3,91 110.4,91 110.4,91        110.4,91 110.4,91 110.5,91 110.5,91 110.5,91 110.5,91 110.6,91 110.6,91 110.6,91 110.7,91 110.7,91 110.7,91 110.7,91        110.8,91 110.8,91 110.8,91 110.9,91 110.9,91 110.9,91 110.9,91 111,91 111,91 111,91 111.1,91 111.1,91 111.1,91 111.1,91        111.2,91 111.2,91 111.2,91 111.3,91 111.3,91 111.3,91 111.3,91 111.4,91 111.4,91 111.4,91 111.5,91 111.5,91 111.5,91        111.5,91 111.6,91 111.6,91 111.6,91 111.7,91 111.7,91 111.7,91 111.7,91 111.8,91 111.8,91 111.8,91 111.9,91 111.9,91        111.9,91 111.9,91 112,91 112,91 112,91 112.1,91 112.1,91 112.1,91 112.1,91 112.2,91 112.2,91 112.2,91 112.3,91 112.3,91        112.3,91 112.3,91 112.4,91 112.4,91 112.4,91 112.5,91 112.5,91 112.5,91 112.5,91 112.6,91 112.6,91 112.6,91 112.7,91        112.7,91 112.7,91 112.7,91 112.8,91 112.8,91 112.8,91 112.8,91 112.9,91 112.9,91 112.9,91 113,91 113,91 113,91 113,91        113.1,91 113.1,91 113.1,91 113.2,91 113.2,91 113.2,91 113.2,91 113.3,91 113.3,91 113.3,91 113.4,91 113.4,91 113.4,91        113.4,91 113.5,91 113.5,91 113.5,91 113.6,91 113.6,91 113.6,91 113.6,91 113.7,91 113.7,91 113.7,91 113.8,91 113.8,91        113.8,91 113.8,91 113.9,91 113.9,91 113.9,91 114,91 114,91 114,91 114,91 114.1,91 114.1,91 114.1,91 114.2,91 114.2,91        114.2,91 114.2,91 114.3,91 114.3,91 114.3,91 114.4,91 114.4,91 114.4,91 114.4,91 114.5,91 114.5,91 114.5,91 114.6,91        114.6,91 114.6,91 114.6,91 114.7,91 114.7,91 114.7,91 114.8,91 114.8,91 114.8,91 114.8,91 114.9,91 114.9,91 114.9,91        115,91 115,88.9 114.9,88.9      "/>
    <linearGradient id="SVGID_20_" gradientUnits="userSpaceOnUse" x1="111.1343" y1="166.6087" x2="111.1343" y2="40.4035">
      <stop offset="0" style="stop-color:#59FF7F"/>
      <stop offset="1" style="stop-color:#6BFBFF"/>
    </linearGradient>
    <polygon class="st26" points="109.5,96.5 109.5,96.5 109.6,96.5 109.6,96.5 109.6,96.5 109.6,96.5 109.6,96.5 109.7,96.5        109.7,96.5 109.7,96.5 109.7,96.5 109.7,96.5 109.7,96.5 109.8,96.5 109.8,96.5 109.8,96.5 109.8,96.5 109.8,96.5 109.8,96.5        109.9,96.5 109.9,96.5 109.9,96.5 109.9,96.5 109.9,96.5 109.9,96.5 110,96.5 110,96.5 110,96.5 110,96.5 110,96.5 110,96.5        110.1,96.5 110.1,96.5 110.1,96.5 110.1,96.5 110.1,96.5 110.1,96.5 110.2,96.5 110.2,96.5 110.2,96.5 110.2,96.5 110.2,96.5        110.2,96.5 110.3,96.5 110.3,96.5 110.3,96.5 110.3,96.5 110.3,96.5 110.4,96.5 110.4,96.5 110.4,96.5 110.4,96.5 110.4,96.5        110.4,96.5 110.5,96.5 110.5,96.5 110.5,96.5 110.5,96.5 110.5,96.5 110.5,96.5 110.6,96.5 110.6,96.5 110.6,96.5 110.6,96.5        110.6,96.5 110.6,96.5 110.7,96.5 110.7,96.5 110.7,96.5 110.7,96.5 110.7,96.5 110.7,96.5 110.8,96.5 110.8,96.5 110.8,96.5        110.8,96.5 110.8,96.5 110.8,96.5 110.9,96.5 110.9,96.5 110.9,96.5 110.9,96.5 110.9,96.5 110.9,96.5 111,96.5 111,96.5        111,96.5 111,96.5 111,96.5 111,96.5 111.1,96.5 111.1,96.5 111.1,96.5 111.1,96.5 111.1,96.5 111.2,96.5 111.2,96.5        111.2,96.5 111.2,96.5 111.2,96.5 111.2,96.5 111.3,96.5 111.3,96.5 111.3,96.5 111.3,96.5 111.3,96.5 111.3,96.5 111.4,96.5        111.4,96.5 111.4,96.5 111.4,96.5 111.4,96.5 111.4,96.5 111.5,96.5 111.5,96.5 111.5,96.5 111.5,96.5 111.5,96.5 111.5,96.5        111.6,96.5 111.6,96.5 111.6,96.5 111.6,96.5 111.6,96.5 111.6,96.5 111.7,96.5 111.7,96.5 111.7,96.5 111.7,96.5 111.7,96.5        111.7,96.5 111.8,96.5 111.8,96.5 111.8,96.5 111.8,96.5 111.8,96.5 111.9,96.5 111.9,96.5 111.9,96.5 111.9,96.5 111.9,96.5        111.9,96.5 112,96.5 112,96.5 112,96.5 112,96.5 112,96.5 112,96.5 112.1,96.5 112.1,96.5 112.1,96.5 112.1,96.5 112.1,96.5        112.1,96.5 112.2,96.5 112.2,96.5 112.2,96.5 112.2,96.5 112.2,96.5 112.2,96.5 112.3,96.5 112.3,96.5 112.3,96.5 112.3,96.5        112.3,96.5 112.3,96.5 112.4,96.5 112.4,96.5 112.4,96.5 112.4,96.5 112.4,96.5 112.4,96.5 112.5,96.5 112.5,96.5 112.5,96.5        112.5,96.5 112.5,96.5 112.5,96.5 112.6,96.5 112.6,96.5 112.6,96.5 112.6,96.5 112.6,96.5 112.7,96.5 112.7,96.5 112.7,96.5        112.7,96.5 112.7,96.5 112.7,96.5 112.8,96.5 112.8,96.5 112.8,94.4 112.8,94.4 112.7,94.4 112.7,94.4 112.7,94.4 112.7,94.4        112.7,94.4 112.7,94.4 112.6,94.4 112.6,94.4 112.6,94.4 112.6,94.4 112.6,94.4 112.5,94.4 112.5,94.4 112.5,94.4 112.5,94.4        112.5,94.4 112.5,94.4 112.4,94.4 112.4,94.4 112.4,94.4 112.4,94.4 112.4,94.4 112.4,94.4 112.3,94.4 112.3,94.4 112.3,94.4        112.3,94.4 112.3,94.4 112.3,94.4 112.2,94.4 112.2,94.4 112.2,94.4 112.2,94.4 112.2,94.4 112.2,94.4 112.1,94.4 112.1,94.4        112.1,94.4 112.1,94.4 112.1,94.4 112.1,94.4 112,94.4 112,94.4 112,94.4 112,94.4 112,94.4 112,94.4 111.9,94.4 111.9,94.4        111.9,94.4 111.9,94.4 111.9,94.4 111.9,94.4 111.8,94.4 111.8,94.4 111.8,94.4 111.8,94.4 111.8,94.4 111.7,94.4 111.7,94.4        111.7,94.4 111.7,94.4 111.7,94.4 111.7,94.4 111.6,94.4 111.6,94.4 111.6,94.4 111.6,94.4 111.6,94.4 111.6,94.4 111.5,94.4        111.5,94.4 111.5,94.4 111.5,94.4 111.5,94.4 111.5,94.4 111.4,94.4 111.4,94.4 111.4,94.4 111.4,94.4 111.4,94.4 111.4,94.4        111.3,94.4 111.3,94.4 111.3,94.4 111.3,94.4 111.3,94.4 111.3,94.4 111.2,94.4 111.2,94.4 111.2,94.4 111.2,94.4 111.2,94.4        111.2,94.4 111.1,94.4 111.1,94.4 111.1,94.4 111.1,94.4 111.1,94.4 111,94.4 111,94.4 111,94.4 111,94.4 111,94.4 111,94.4        110.9,94.4 110.9,94.4 110.9,94.4 110.9,94.4 110.9,94.4 110.9,94.4 110.8,94.4 110.8,94.4 110.8,94.4 110.8,94.4 110.8,94.4        110.8,94.4 110.7,94.4 110.7,94.4 110.7,94.4 110.7,94.4 110.7,94.4 110.7,94.4 110.6,94.4 110.6,94.4 110.6,94.4 110.6,94.4        110.6,94.4 110.6,94.4 110.5,94.4 110.5,94.4 110.5,94.4 110.5,94.4 110.5,94.4 110.5,94.4 110.4,94.4 110.4,94.4 110.4,94.4        110.4,94.4 110.4,94.4 110.4,94.4 110.3,94.4 110.3,94.4 110.3,94.4 110.3,94.4 110.3,94.4 110.2,94.4 110.2,94.4 110.2,94.4        110.2,94.4 110.2,94.4 110.2,94.4 110.1,94.4 110.1,94.4 110.1,94.4 110.1,94.4 110.1,94.4 110.1,94.4 110,94.4 110,94.4        110,94.4 110,94.4 110,94.4 110,94.4 109.9,94.4 109.9,94.4 109.9,94.4 109.9,94.4 109.9,94.4 109.9,94.4 109.8,94.4        109.8,94.4 109.8,94.4 109.8,94.4 109.8,94.4 109.8,94.4 109.7,94.4 109.7,94.4 109.7,94.4 109.7,94.4 109.7,94.4 109.7,94.4        109.6,94.4 109.6,94.4 109.6,94.4 109.6,94.4 109.6,94.4 109.5,94.4 109.5,94.4 109.5,94.4 109.5,94.4 109.5,96.5 109.5,96.5             "/>
    <linearGradient id="SVGID_21_" gradientUnits="userSpaceOnUse" x1="112.2251" y1="166.6087" x2="112.2251" y2="40.4035">
      <stop offset="0" style="stop-color:#59FF7F"/>
      <stop offset="1" style="stop-color:#6BFBFF"/>
    </linearGradient>
    <polygon class="st27" points="114.9,99.8 114.9,99.8 114.8,99.8 114.8,99.8 114.8,99.8 114.8,99.8 114.7,99.8 114.7,99.8        114.7,99.8 114.6,99.8 114.6,99.8 114.6,99.8 114.6,99.8 114.5,99.8 114.5,99.8 114.5,99.8 114.4,99.8 114.4,99.8 114.4,99.8        114.4,99.8 114.3,99.8 114.3,99.8 114.3,99.8 114.2,99.8 114.2,99.8 114.2,99.8 114.2,99.8 114.1,99.8 114.1,99.8 114.1,99.8        114,99.8 114,99.8 114,99.8 114,99.8 113.9,99.8 113.9,99.8 113.9,99.8 113.8,99.8 113.8,99.8 113.8,99.8 113.8,99.8        113.7,99.8 113.7,99.8 113.7,99.8 113.6,99.8 113.6,99.8 113.6,99.8 113.6,99.8 113.5,99.8 113.5,99.8 113.5,99.8 113.4,99.8        113.4,99.8 113.4,99.8 113.4,99.8 113.3,99.8 113.3,99.8 113.3,99.8 113.2,99.8 113.2,99.8 113.2,99.8 113.2,99.8 113.1,99.8        113.1,99.8 113.1,99.8 113,99.8 113,99.8 113,99.8 113,99.8 112.9,99.8 112.9,99.8 112.9,99.8 112.8,99.8 112.8,99.8        112.8,99.8 112.8,99.8 112.7,99.8 112.7,99.8 112.7,99.8 112.7,99.8 112.6,99.8 112.6,99.8 112.6,99.8 112.5,99.8 112.5,99.8        112.5,99.8 112.5,99.8 112.4,99.8 112.4,99.8 112.4,99.8 112.3,99.8 112.3,99.8 112.3,99.8 112.3,99.8 112.2,99.8 112.2,99.8        112.2,99.8 112.1,99.8 112.1,99.8 112.1,99.8 112.1,99.8 112,99.8 112,99.8 112,99.8 111.9,99.8 111.9,99.8 111.9,99.8        111.9,99.8 111.8,99.8 111.8,99.8 111.8,99.8 111.7,99.8 111.7,99.8 111.7,99.8 111.7,99.8 111.6,99.8 111.6,99.8 111.6,99.8        111.5,99.8 111.5,99.8 111.5,99.8 111.5,99.8 111.4,99.8 111.4,99.8 111.4,99.8 111.3,99.8 111.3,99.8 111.3,99.8 111.3,99.8        111.2,99.8 111.2,99.8 111.2,99.8 111.1,99.8 111.1,99.8 111.1,99.8 111.1,99.8 111,99.8 111,99.8 111,99.8 110.9,99.8        110.9,99.8 110.9,99.8 110.9,99.8 110.8,99.8 110.8,99.8 110.8,99.8 110.7,99.8 110.7,99.8 110.7,99.8 110.7,99.8 110.6,99.8        110.6,99.8 110.6,99.8 110.5,99.8 110.5,99.8 110.5,99.8 110.5,99.8 110.4,99.8 110.4,99.8 110.4,99.8 110.4,99.8 110.3,99.8        110.3,99.8 110.3,99.8 110.2,99.8 110.2,99.8 110.2,99.8 110.2,99.8 110.1,99.8 110.1,99.8 110.1,99.8 110,99.8 110,99.8        110,99.8 110,99.8 109.9,99.8 109.9,99.8 109.9,99.8 109.8,99.8 109.8,99.8 109.8,99.8 109.8,99.8 109.7,99.8 109.7,99.8        109.7,99.8 109.6,99.8 109.6,99.8 109.6,99.8 109.6,99.8 109.5,99.8 109.5,99.8 109.5,101.9 109.5,101.9 109.6,101.9        109.6,101.9 109.6,101.9 109.6,101.9 109.7,101.9 109.7,101.9 109.7,101.9 109.8,101.9 109.8,101.9 109.8,101.9 109.8,101.9        109.9,101.9 109.9,101.9 109.9,101.9 110,101.9 110,101.9 110,101.9 110,101.9 110.1,101.9 110.1,101.9 110.1,101.9        110.2,101.9 110.2,101.9 110.2,101.9 110.2,101.9 110.3,101.9 110.3,101.9 110.3,101.9 110.4,101.9 110.4,101.9 110.4,101.9        110.4,101.9 110.5,101.9 110.5,101.9 110.5,101.9 110.5,101.9 110.6,101.9 110.6,101.9 110.6,101.9 110.7,101.9 110.7,101.9        110.7,101.9 110.7,101.9 110.8,101.9 110.8,101.9 110.8,101.9 110.9,101.9 110.9,101.9 110.9,101.9 110.9,101.9 111,101.9        111,101.9 111,101.9 111.1,101.9 111.1,101.9 111.1,101.9 111.1,101.9 111.2,101.9 111.2,101.9 111.2,101.9 111.3,101.9        111.3,101.9 111.3,101.9 111.3,101.9 111.4,101.9 111.4,101.9 111.4,101.9 111.5,101.9 111.5,101.9 111.5,101.9 111.5,101.9        111.6,101.9 111.6,101.9 111.6,101.9 111.7,101.9 111.7,101.9 111.7,101.9 111.7,101.9 111.8,101.9 111.8,101.9 111.8,101.9        111.9,101.9 111.9,101.9 111.9,101.9 111.9,101.9 112,101.9 112,101.9 112,101.9 112.1,101.9 112.1,101.9 112.1,101.9        112.1,101.9 112.2,101.9 112.2,101.9 112.2,101.9 112.3,101.9 112.3,101.9 112.3,101.9 112.3,101.9 112.4,101.9 112.4,101.9        112.4,101.9 112.5,101.9 112.5,101.9 112.5,101.9 112.5,101.9 112.6,101.9 112.6,101.9 112.6,101.9 112.7,101.9 112.7,101.9        112.7,101.9 112.7,101.9 112.8,101.9 112.8,101.9 112.8,101.9 112.8,101.9 112.9,101.9 112.9,101.9 112.9,101.9 113,101.9        113,101.9 113,101.9 113,101.9 113.1,101.9 113.1,101.9 113.1,101.9 113.2,101.9 113.2,101.9 113.2,101.9 113.2,101.9        113.3,101.9 113.3,101.9 113.3,101.9 113.4,101.9 113.4,101.9 113.4,101.9 113.4,101.9 113.5,101.9 113.5,101.9 113.5,101.9        113.6,101.9 113.6,101.9 113.6,101.9 113.6,101.9 113.7,101.9 113.7,101.9 113.7,101.9 113.8,101.9 113.8,101.9 113.8,101.9        113.8,101.9 113.9,101.9 113.9,101.9 113.9,101.9 114,101.9 114,101.9 114,101.9 114,101.9 114.1,101.9 114.1,101.9        114.1,101.9 114.2,101.9 114.2,101.9 114.2,101.9 114.2,101.9 114.3,101.9 114.3,101.9 114.3,101.9 114.4,101.9 114.4,101.9        114.4,101.9 114.4,101.9 114.5,101.9 114.5,101.9 114.5,101.9 114.6,101.9 114.6,101.9 114.6,101.9 114.6,101.9 114.7,101.9        114.7,101.9 114.7,101.9 114.8,101.9 114.8,101.9 114.8,101.9 114.8,101.9 114.9,101.9 114.9,101.9 114.9,101.9 115,101.9        115,99.8 114.9,99.8      "/>
    <linearGradient id="SVGID_22_" gradientUnits="userSpaceOnUse" x1="111.1343" y1="166.6087" x2="111.1343" y2="40.4035">
      <stop offset="0" style="stop-color:#59FF7F"/>
      <stop offset="1" style="stop-color:#6BFBFF"/>
    </linearGradient>
    <polygon class="st28" points="109.5,107.4 109.5,107.4 109.6,107.4 109.6,107.4 109.6,107.4 109.6,107.4 109.6,107.4        109.7,107.4 109.7,107.4 109.7,107.4 109.7,107.4 109.7,107.4 109.7,107.4 109.8,107.4 109.8,107.4 109.8,107.4 109.8,107.4        109.8,107.4 109.8,107.4 109.9,107.4 109.9,107.4 109.9,107.4 109.9,107.4 109.9,107.4 109.9,107.4 110,107.4 110,107.4        110,107.4 110,107.4 110,107.4 110,107.4 110.1,107.4 110.1,107.4 110.1,107.4 110.1,107.4 110.1,107.4 110.1,107.4        110.2,107.4 110.2,107.4 110.2,107.4 110.2,107.4 110.2,107.4 110.2,107.4 110.3,107.4 110.3,107.4 110.3,107.4 110.3,107.4        110.3,107.4 110.4,107.4 110.4,107.4 110.4,107.4 110.4,107.4 110.4,107.4 110.4,107.4 110.5,107.4 110.5,107.4 110.5,107.4        110.5,107.4 110.5,107.4 110.5,107.4 110.6,107.4 110.6,107.4 110.6,107.4 110.6,107.4 110.6,107.4 110.6,107.4 110.7,107.4        110.7,107.4 110.7,107.4 110.7,107.4 110.7,107.4 110.7,107.4 110.8,107.4 110.8,107.4 110.8,107.4 110.8,107.4 110.8,107.4        110.8,107.4 110.9,107.4 110.9,107.4 110.9,107.4 110.9,107.4 110.9,107.4 110.9,107.4 111,107.4 111,107.4 111,107.4        111,107.4 111,107.4 111,107.4 111.1,107.4 111.1,107.4 111.1,107.4 111.1,107.4 111.1,107.4 111.2,107.4 111.2,107.4        111.2,107.4 111.2,107.4 111.2,107.4 111.2,107.4 111.3,107.4 111.3,107.4 111.3,107.4 111.3,107.4 111.3,107.4 111.3,107.4        111.4,107.4 111.4,107.4 111.4,107.4 111.4,107.4 111.4,107.4 111.4,107.4 111.5,107.4 111.5,107.4 111.5,107.4 111.5,107.4        111.5,107.4 111.5,107.4 111.6,107.4 111.6,107.4 111.6,107.4 111.6,107.4 111.6,107.4 111.6,107.4 111.7,107.4 111.7,107.4        111.7,107.4 111.7,107.4 111.7,107.4 111.7,107.4 111.8,107.4 111.8,107.4 111.8,107.4 111.8,107.4 111.8,107.4 111.9,107.4        111.9,107.4 111.9,107.4 111.9,107.4 111.9,107.4 111.9,107.4 112,107.4 112,107.4 112,107.4 112,107.4 112,107.4 112,107.4        112.1,107.4 112.1,107.4 112.1,107.4 112.1,107.4 112.1,107.4 112.1,107.4 112.2,107.4 112.2,107.4 112.2,107.4 112.2,107.4        112.2,107.4 112.2,107.4 112.3,107.4 112.3,107.4 112.3,107.4 112.3,107.4 112.3,107.4 112.3,107.4 112.4,107.4 112.4,107.4        112.4,107.4 112.4,107.4 112.4,107.4 112.4,107.4 112.5,107.4 112.5,107.4 112.5,107.4 112.5,107.4 112.5,107.4 112.5,107.4        112.6,107.4 112.6,107.4 112.6,107.4 112.6,107.4 112.6,107.4 112.7,107.4 112.7,107.4 112.7,107.4 112.7,107.4 112.7,107.4        112.7,107.4 112.8,107.4 112.8,107.4 112.8,105.3 112.8,105.3 112.7,105.3 112.7,105.3 112.7,105.3 112.7,105.3 112.7,105.3        112.7,105.3 112.6,105.3 112.6,105.3 112.6,105.3 112.6,105.3 112.6,105.3 112.5,105.3 112.5,105.3 112.5,105.3 112.5,105.3        112.5,105.3 112.5,105.3 112.4,105.3 112.4,105.3 112.4,105.3 112.4,105.3 112.4,105.3 112.4,105.3 112.3,105.3 112.3,105.3        112.3,105.3 112.3,105.3 112.3,105.3 112.3,105.3 112.2,105.3 112.2,105.3 112.2,105.3 112.2,105.3 112.2,105.3 112.2,105.3        112.1,105.3 112.1,105.3 112.1,105.3 112.1,105.3 112.1,105.3 112.1,105.3 112,105.3 112,105.3 112,105.3 112,105.3 112,105.3        112,105.3 111.9,105.3 111.9,105.3 111.9,105.3 111.9,105.3 111.9,105.3 111.9,105.3 111.8,105.3 111.8,105.3 111.8,105.3        111.8,105.3 111.8,105.3 111.7,105.3 111.7,105.3 111.7,105.3 111.7,105.3 111.7,105.3 111.7,105.3 111.6,105.3 111.6,105.3        111.6,105.3 111.6,105.3 111.6,105.3 111.6,105.3 111.5,105.3 111.5,105.3 111.5,105.3 111.5,105.3 111.5,105.3 111.5,105.3        111.4,105.3 111.4,105.3 111.4,105.3 111.4,105.3 111.4,105.3 111.4,105.3 111.3,105.3 111.3,105.3 111.3,105.3 111.3,105.3        111.3,105.3 111.3,105.3 111.2,105.3 111.2,105.3 111.2,105.3 111.2,105.3 111.2,105.3 111.2,105.3 111.1,105.3 111.1,105.3        111.1,105.3 111.1,105.3 111.1,105.3 111,105.3 111,105.3 111,105.3 111,105.3 111,105.3 111,105.3 110.9,105.3 110.9,105.3        110.9,105.3 110.9,105.3 110.9,105.3 110.9,105.3 110.8,105.3 110.8,105.3 110.8,105.3 110.8,105.3 110.8,105.3 110.8,105.3        110.7,105.3 110.7,105.3 110.7,105.3 110.7,105.3 110.7,105.3 110.7,105.3 110.6,105.3 110.6,105.3 110.6,105.3 110.6,105.3        110.6,105.3 110.6,105.3 110.5,105.3 110.5,105.3 110.5,105.3 110.5,105.3 110.5,105.3 110.5,105.3 110.4,105.3 110.4,105.3        110.4,105.3 110.4,105.3 110.4,105.3 110.4,105.3 110.3,105.3 110.3,105.3 110.3,105.3 110.3,105.3 110.3,105.3 110.2,105.3        110.2,105.3 110.2,105.3 110.2,105.3 110.2,105.3 110.2,105.3 110.1,105.3 110.1,105.3 110.1,105.3 110.1,105.3 110.1,105.3        110.1,105.3 110,105.3 110,105.3 110,105.3 110,105.3 110,105.3 110,105.3 109.9,105.3 109.9,105.3 109.9,105.3 109.9,105.3        109.9,105.3 109.9,105.3 109.8,105.3 109.8,105.3 109.8,105.3 109.8,105.3 109.8,105.3 109.8,105.3 109.7,105.3 109.7,105.3        109.7,105.3 109.7,105.3 109.7,105.3 109.7,105.3 109.6,105.3 109.6,105.3 109.6,105.3 109.6,105.3 109.6,105.3 109.5,105.3        109.5,105.3 109.5,105.3 109.5,105.3 109.5,107.4 109.5,107.4      "/>
    <linearGradient id="SVGID_23_" gradientUnits="userSpaceOnUse" x1="112.2251" y1="166.6087" x2="112.2251" y2="40.4035">
      <stop offset="0" style="stop-color:#59FF7F"/>
      <stop offset="1" style="stop-color:#6BFBFF"/>
    </linearGradient>
    <polygon class="st29" points="114.9,110.7 114.9,110.7 114.8,110.7 114.8,110.7 114.8,110.7 114.8,110.7 114.7,110.7        114.7,110.7 114.7,110.7 114.6,110.7 114.6,110.7 114.6,110.7 114.6,110.7 114.5,110.7 114.5,110.7 114.5,110.7 114.4,110.7        114.4,110.7 114.4,110.7 114.4,110.7 114.3,110.7 114.3,110.7 114.3,110.7 114.2,110.7 114.2,110.7 114.2,110.7 114.2,110.7        114.1,110.7 114.1,110.7 114.1,110.7 114,110.7 114,110.7 114,110.7 114,110.7 113.9,110.7 113.9,110.7 113.9,110.7        113.8,110.7 113.8,110.7 113.8,110.7 113.8,110.7 113.7,110.7 113.7,110.7 113.7,110.7 113.6,110.7 113.6,110.7 113.6,110.7        113.6,110.7 113.5,110.7 113.5,110.7 113.5,110.7 113.4,110.7 113.4,110.7 113.4,110.7 113.4,110.7 113.3,110.7 113.3,110.7        113.3,110.7 113.2,110.7 113.2,110.7 113.2,110.7 113.2,110.7 113.1,110.7 113.1,110.7 113.1,110.7 113,110.7 113,110.7        113,110.7 113,110.7 112.9,110.7 112.9,110.7 112.9,110.7 112.8,110.7 112.8,110.7 112.8,110.7 112.8,110.7 112.7,110.7        112.7,110.7 112.7,110.7 112.7,110.7 112.6,110.7 112.6,110.7 112.6,110.7 112.5,110.7 112.5,110.7 112.5,110.7 112.5,110.7        112.4,110.7 112.4,110.7 112.4,110.7 112.3,110.7 112.3,110.7 112.3,110.7 112.3,110.7 112.2,110.7 112.2,110.7 112.2,110.7        112.1,110.7 112.1,110.7 112.1,110.7 112.1,110.7 112,110.7 112,110.7 112,110.7 111.9,110.7 111.9,110.7 111.9,110.7        111.9,110.7 111.8,110.7 111.8,110.7 111.8,110.7 111.7,110.7 111.7,110.7 111.7,110.7 111.7,110.7 111.6,110.7 111.6,110.7        111.6,110.7 111.5,110.7 111.5,110.7 111.5,110.7 111.5,110.7 111.4,110.7 111.4,110.7 111.4,110.7 111.3,110.7 111.3,110.7        111.3,110.7 111.3,110.7 111.2,110.7 111.2,110.7 111.2,110.7 111.1,110.7 111.1,110.7 111.1,110.7 111.1,110.7 111,110.7        111,110.7 111,110.7 110.9,110.7 110.9,110.7 110.9,110.7 110.9,110.7 110.8,110.7 110.8,110.7 110.8,110.7 110.7,110.7        110.7,110.7 110.7,110.7 110.7,110.7 110.6,110.7 110.6,110.7 110.6,110.7 110.5,110.7 110.5,110.7 110.5,110.7 110.5,110.7        110.4,110.7 110.4,110.7 110.4,110.7 110.4,110.7 110.3,110.7 110.3,110.7 110.3,110.7 110.2,110.7 110.2,110.7 110.2,110.7        110.2,110.7 110.1,110.7 110.1,110.7 110.1,110.7 110,110.7 110,110.7 110,110.7 110,110.7 109.9,110.7 109.9,110.7        109.9,110.7 109.8,110.7 109.8,110.7 109.8,110.7 109.8,110.7 109.7,110.7 109.7,110.7 109.7,110.7 109.6,110.7 109.6,110.7        109.6,110.7 109.6,110.7 109.5,110.7 109.5,110.7 109.5,112.8 109.5,112.8 109.6,112.8 109.6,112.8 109.6,112.8 109.6,112.8        109.7,112.8 109.7,112.8 109.7,112.8 109.8,112.8 109.8,112.8 109.8,112.8 109.8,112.8 109.9,112.8 109.9,112.8 109.9,112.8        110,112.8 110,112.8 110,112.8 110,112.8 110.1,112.8 110.1,112.8 110.1,112.8 110.2,112.8 110.2,112.8 110.2,112.8        110.2,112.8 110.3,112.8 110.3,112.8 110.3,112.8 110.4,112.8 110.4,112.8 110.4,112.8 110.4,112.8 110.5,112.8 110.5,112.8        110.5,112.8 110.5,112.8 110.6,112.8 110.6,112.8 110.6,112.8 110.7,112.8 110.7,112.8 110.7,112.8 110.7,112.8 110.8,112.8        110.8,112.8 110.8,112.8 110.9,112.8 110.9,112.8 110.9,112.8 110.9,112.8 111,112.8 111,112.8 111,112.8 111.1,112.8        111.1,112.8 111.1,112.8 111.1,112.8 111.2,112.8 111.2,112.8 111.2,112.8 111.3,112.8 111.3,112.8 111.3,112.8 111.3,112.8        111.4,112.8 111.4,112.8 111.4,112.8 111.5,112.8 111.5,112.8 111.5,112.8 111.5,112.8 111.6,112.8 111.6,112.8 111.6,112.8        111.7,112.8 111.7,112.8 111.7,112.8 111.7,112.8 111.8,112.8 111.8,112.8 111.8,112.8 111.9,112.8 111.9,112.8 111.9,112.8        111.9,112.8 112,112.8 112,112.8 112,112.8 112.1,112.8 112.1,112.8 112.1,112.8 112.1,112.8 112.2,112.8 112.2,112.8        112.2,112.8 112.3,112.8 112.3,112.8 112.3,112.8 112.3,112.8 112.4,112.8 112.4,112.8 112.4,112.8 112.5,112.8 112.5,112.8        112.5,112.8 112.5,112.8 112.6,112.8 112.6,112.8 112.6,112.8 112.7,112.8 112.7,112.8 112.7,112.8 112.7,112.8 112.8,112.8        112.8,112.8 112.8,112.8 112.8,112.8 112.9,112.8 112.9,112.8 112.9,112.8 113,112.8 113,112.8 113,112.8 113,112.8        113.1,112.8 113.1,112.8 113.1,112.8 113.2,112.8 113.2,112.8 113.2,112.8 113.2,112.8 113.3,112.8 113.3,112.8 113.3,112.8        113.4,112.8 113.4,112.8 113.4,112.8 113.4,112.8 113.5,112.8 113.5,112.8 113.5,112.8 113.6,112.8 113.6,112.8 113.6,112.8        113.6,112.8 113.7,112.8 113.7,112.8 113.7,112.8 113.8,112.8 113.8,112.8 113.8,112.8 113.8,112.8 113.9,112.8 113.9,112.8        113.9,112.8 114,112.8 114,112.8 114,112.8 114,112.8 114.1,112.8 114.1,112.8 114.1,112.8 114.2,112.8 114.2,112.8        114.2,112.8 114.2,112.8 114.3,112.8 114.3,112.8 114.3,112.8 114.4,112.8 114.4,112.8 114.4,112.8 114.4,112.8 114.5,112.8        114.5,112.8 114.5,112.8 114.6,112.8 114.6,112.8 114.6,112.8 114.6,112.8 114.7,112.8 114.7,112.8 114.7,112.8 114.8,112.8        114.8,112.8 114.8,112.8 114.8,112.8 114.9,112.8 114.9,112.8 114.9,112.8 115,112.8 115,110.7 114.9,110.7      "/>
  </g>
</svg>