<svg viewBox="60 73 70 68" width="50%" height="50%">
  <style xmlns="http://www.w3.org/2000/svg" type="text/css">
    .st12{fill:url(#SVGID_6_);}
  </style>
  <g xmlns="http://www.w3.org/2000/svg">
    <linearGradient id="SVGID_6_" gradientUnits="userSpaceOnUse" x1="86.8316" y1="146.5267" x2="114.4622" y2="66.8384">
      <stop offset="0" style="stop-color:#59FF7F"/>
      <stop offset="1" style="stop-color:#6BFBFF"/>
    </linearGradient>
    <path class="st12" d="M71.3,139.8c-3.8,0-7.2-1.5-8.9-4.5c-1.7-2.9-3.2-8.7,5.7-13.8c2.9-1.7,10.2-2.3,12.4-2.4l0,2.1        c-2.7,0.1-9.2,0.8-11.4,2.1c-5.6,3.2-7.2,6.9-4.9,10.9c2.3,4,8.7,4.6,14.3,1.3c4-2.3,6.3-6.3,6.4-10.7l-0.1-0.4V82.7l42.9-8.4        l0.1,42.6c0,4-2,9.8-7.5,13c-6.6,3.8-14.4,2.9-17.2-2.1c-1.7-2.9-3.2-8.7,5.7-13.8c2.6-1.5,8.6-2.3,11.2-2.4l0.1,2.1        c-2.5,0.1-8,0.8-10.2,2.1c-3.8,2.2-7.8,5.9-4.9,10.9c2.3,4,8.7,4.6,14.3,1.3c4.7-2.7,6.4-7.6,6.4-11.1l-0.1-0.5V76.9        l-38.6,7.6v39.9l0.1,0.4c0,5.2-2.8,9.9-7.4,12.6C76.9,139,74,139.8,71.3,139.8z"/>
  </g>
</svg>