<svg xmlns="http://www.w3.org/2000/svg" version="1.1" viewBox="50 25 220 220" style="fill: transparent;">
  <style xmlns="http://www.w3.org/2000/svg" type="text/css">
    .st43{opacity:0.4;fill:url(#SVGID_37_);}
    .st44{fill:url(#SVGID_38_);}
    .st45{fill:url(#SVGID_39_);}
    .st46{fill:url(#SVGID_40_);}
    .st47{fill:url(#SVGID_41_);}
    .st48{fill:url(#SVGID_42_);}
    .st49{fill:url(#SVGID_43_);}
    .st50{fill:url(#SVGID_44_);}
  </style>
  <g xmlns="http://www.w3.org/2000/svg">
    <linearGradient id="SVGID_37_" gradientUnits="userSpaceOnUse" x1="-56.392" y1="435.3027" x2="216.3353" y2="53.4845">
      <stop offset="0.2978" style="stop-color:#FFFFFF;stop-opacity:0"/>
      <stop offset="0.3685" style="stop-color:#FAFAFA;stop-opacity:0.1007"/>
      <stop offset="0.4554" style="stop-color:#EBEBEB;stop-opacity:0.2245"/>
      <stop offset="0.5508" style="stop-color:#D2D2D2;stop-opacity:0.3603"/>
      <stop offset="0.6523" style="stop-color:#AFAFAF;stop-opacity:0.5048"/>
      <stop offset="0.7585" style="stop-color:#828282;stop-opacity:0.6562"/>
      <stop offset="0.8689" style="stop-color:#4B4B4B;stop-opacity:0.8133"/>
      <stop offset="0.9806" style="stop-color:#0C0C0C;stop-opacity:0.9724"/>
      <stop offset="1" style="stop-color:#000000"/>
    </linearGradient>
    <linearGradient id="SVGID_38_" gradientUnits="userSpaceOnUse" x1="4.0481" y1="287.9491" x2="320.4859" y2="-15.403" gradientTransform="matrix(1 5.464556e-03 -5.464556e-03 1 -2.0192 -3.0212)">
      <stop offset="0" style="stop-color:#59FF7F"/>
      <stop offset="1" style="stop-color:#6BFBFF"/>
    </linearGradient>
    <path class="st44" d="M160,238.8c-0.2,0-0.4,0-0.6,0c-58-0.3-104.9-47.7-104.6-105.7C55.2,75.3,102.3,28.5,160,28.5       c0.2,0,0.4,0,0.6,0c58,0.3,104.9,47.7,104.6,105.7l0,0C264.8,192,217.7,238.8,160,238.8z M160,32.2       c-55.7,0-101.2,45.2-101.5,100.9c-0.3,55.9,45,101.7,100.9,102c0.2,0,0.4,0,0.6,0c55.7,0,101.2-45.2,101.5-100.9       c0.3-55.9-45-101.7-100.9-102C160.4,32.2,160.2,32.2,160,32.2z"/>
    <linearGradient id="SVGID_39_" gradientUnits="userSpaceOnUse" x1="217.7681" y1="287.112" x2="149.7331" y2="-43.9916">
      <stop offset="0" style="stop-color:#59FF7F"/>
      <stop offset="1" style="stop-color:#6BFBFF"/>
    </linearGradient>
    <path class="st45" d="M185.5,129.4c-2.4,0-4.2,1.8-4.2,4.2c0,9.1-5.7,17-14.1,19.9c-1.7,0.6-2.8,2.1-2.8,4v30.6       c0,1.3,0.6,2.4,1.4,3.3c1,0.8,2.1,1.1,3.4,1c29-4.5,50.4-29.4,50.4-58.7c0-2.4-1.8-4.2-4.2-4.2H185.5z M168.5,188.1v-30.4       c9.9-3.5,17-12.9,17-24h29.7C215.2,161.2,194.9,184.2,168.5,188.1z"/>
    <linearGradient id="SVGID_40_" gradientUnits="userSpaceOnUse" x1="159.0916" y1="299.1688" x2="91.0566" y2="-31.9348">
      <stop offset="0" style="stop-color:#59FF7F"/>
      <stop offset="1" style="stop-color:#6BFBFF"/>
    </linearGradient>
    <path class="st46" d="M152.9,153.6c-8.5-3-14.1-10.9-14.1-19.9c0-2.4-1.8-4.2-4.2-4.2h-29.7c-2.4,0-4.2,1.8-4.2,4.2       c0,29.3,21.4,54.2,50.2,58.7c1.3,0.1,2.4-0.1,3.4-1c1-0.8,1.4-2,1.4-3.3v-30.4C155.8,155.9,154.6,154.3,152.9,153.6z        M151.5,188.1c-26.5-4-46.7-26.9-46.7-54.5h29.7c0,11,7.1,20.5,17,24V188.1z"/>
    <linearGradient id="SVGID_41_" gradientUnits="userSpaceOnUse" x1="192.5936" y1="292.2849" x2="124.5586" y2="-38.8188">
      <stop offset="0" style="stop-color:#59FF7F"/>
      <stop offset="1" style="stop-color:#6BFBFF"/>
    </linearGradient>
    <path class="st47" d="M172.7,133.7c0-7.1-5.7-12.7-12.7-12.7s-12.7,5.7-12.7,12.7c0,7.1,5.7,12.7,12.7,12.7       S172.7,140.7,172.7,133.7z M160,142.2c-4.7,0-8.5-3.8-8.5-8.5s3.8-8.5,8.5-8.5s8.5,3.8,8.5,8.5S164.7,142.2,160,142.2z"/>
    <linearGradient id="SVGID_42_" gradientUnits="userSpaceOnUse" x1="196.1102" y1="291.5623" x2="128.0752" y2="-39.5414">
      <stop offset="0" style="stop-color:#59FF7F"/>
      <stop offset="1" style="stop-color:#6BFBFF"/>
    </linearGradient>
    <path class="st48" d="M160,70c29,0,53.4,19.3,61.1,45.8h4.4C217.7,87,191.3,65.8,160,65.8S102.3,87,94.5,115.8h4.4       C106.6,89.3,131,70,160,70z"/>
    <linearGradient id="SVGID_43_" gradientUnits="userSpaceOnUse" x1="195.9514" y1="291.5949" x2="127.9165" y2="-39.5088">
      <stop offset="0" style="stop-color:#59FF7F"/>
      <stop offset="1" style="stop-color:#6BFBFF"/>
    </linearGradient>
    <path class="st49" d="M160,74.2c-25.7,0-48.7,16.7-56.6,41.2c-0.4,1.3-0.1,2.7,0.7,3.8c0.7,1.1,2,1.7,3.4,1.7H141       c1.3,0,2.3-0.4,3.1-1.4c4.1-4.5,9.8-7.1,15.8-7.1s11.7,2.5,15.8,7.1c0.8,1,2,1.4,3.1,1.4h33.5c1.4,0,2.5-0.6,3.4-1.7       c0.8-1.1,1.1-2.5,0.7-3.8C208.7,90.9,185.7,74.2,160,74.2z M179,116.7c-4.7-5.2-11.5-8.5-19-8.5s-14.3,3.3-19,8.5h-33.5       c7.1-22.2,27.9-38.2,52.5-38.2s45.4,16,52.5,38.2H179z"/>
    <linearGradient id="SVGID_44_" gradientUnits="userSpaceOnUse" x1="192.0486" y1="292.3968" x2="124.0136" y2="-38.7068">
      <stop offset="0" style="stop-color:#59FF7F"/>
      <stop offset="1" style="stop-color:#6BFBFF"/>
    </linearGradient>
    <path class="st50" d="M223.7,133.7c0,35.2-28.4,63.7-63.7,63.7s-63.7-28.4-63.7-63.7c0-0.5,0-1.1,0-1.6h-4.2c0,0.5,0,1.1,0,1.6       c0,37.5,30.4,67.9,67.9,67.9s67.9-30.4,67.9-67.9c0-0.5,0-1.1,0-1.6h-4.2C223.6,132.6,223.7,133.1,223.7,133.7z"/>
  </g>
</svg>