<svg xmlns="http://www.w3.org/2000/svg" version="1.1" viewBox="50 25 220 220" style="fill: transparent;">
  <style xmlns="http://www.w3.org/2000/svg" type="text/css">
    .st62{fill:url(#SVGID_54_);}
    .st63{fill:url(#SVGID_55_);}
  </style>
  <g xmlns="http://www.w3.org/2000/svg">
    <linearGradient id="SVGID_54_" gradientUnits="userSpaceOnUse" x1="4.0481" y1="287.9491" x2="320.4859" y2="-15.403" gradientTransform="matrix(1 5.464556e-03 -5.464556e-03 1 -2.0192 -3.0212)">
      <stop offset="0" style="stop-color:#59FF7F"/>
      <stop offset="1" style="stop-color:#6BFBFF"/>
    </linearGradient>
    <path class="st62" d="M160,238.8c-0.2,0-0.4,0-0.6,0c-58-0.3-104.9-47.7-104.6-105.7C55.2,75.3,102.3,28.5,160,28.5       c0.2,0,0.4,0,0.6,0c58,0.3,104.9,47.7,104.6,105.7l0,0C264.8,192,217.7,238.8,160,238.8z M160,32.2       c-55.7,0-101.2,45.2-101.5,100.9c-0.3,55.9,45,101.7,100.9,102c0.2,0,0.4,0,0.6,0c55.7,0,101.2-45.2,101.5-100.9       c0.3-55.9-45-101.7-100.9-102C160.4,32.2,160.2,32.2,160,32.2z"/>
    <linearGradient id="SVGID_55_" gradientUnits="userSpaceOnUse" x1="98.423" y1="134.5957" x2="225.5767" y2="134.5957">
      <stop offset="0" style="stop-color:#59FF7F"/>
      <stop offset="1" style="stop-color:#6BFBFF"/>
    </linearGradient>
    <path class="st63" d="M222.6,88.9l-13.4-13.4c-2.5-2.5-15.3-4.6-30.5-2.6c-14,1.9-34.6,8-52.8,26.2       c-20.4,20.4-26,40.5-27.2,53.8c-1.3,15,2.6,25.9,4.8,28.2l12.8,12.8c2,2,4.7,3,7.3,3s5.3-1,7.3-3l16.9-21.6       c1.9-1.9,2.9-4.5,2.9-7.2c0-2.8-1.1-5.4-3-7.3l-10.4-10.4c-3.3-3.3-8.9-2.9-9.1-2.9c0,0-0.8,0.1-1.2,0.6       c-0.5,0.5-9.6,9.6-9.6,9.6l2.8,2.8l9-9c1.2,0,3.8,0.2,5.3,1.7l10.4,10.4c1.2,1.2,1.8,2.8,1.8,4.5c0,1.7-0.7,3.3-1.8,4.5       L128,191.3c-2.5,2.4-6.4,2.4-8.9-0.1l-12.8-12.8c-1.1-1.2-4.9-10.8-3.7-25.2c1.1-12.6,6.5-31.7,26-51.2       c32.1-32.1,74.2-26.4,77.7-23.7l13.4,13.4c2.4,2.4,2.5,6.4,0.1,8.9l-22,16.1l-0.2,0.2c-1.2,1.2-2.8,1.9-4.5,1.9       c-1.7,0-3.3-0.7-4.5-1.8l-10.4-10.4c-1.4-1.4-2-3.3-1.8-5.2l9.5-9.5l-2.8-2.8l-8.8,8.8c-2.1,0.2-19.5,2.6-32.7,15.8       c-4.8,4.8-8.7,10.8-11.4,17.6l3.7,1.5c2.5-6.4,6.1-11.8,10.5-16.3c9.9-9.9,22.6-13.2,28-14.2c0,2.7,1.1,5.3,3,7.2l10.4,10.4       c1.9,1.9,4.5,3,7.3,3c2.7,0,5.3-1,7.2-2.9l22-16.1l0.2-0.2C226.6,99.5,226.6,93,222.6,88.9z"/>
  </g>
</svg>